<svg width="260" height="260" viewBox="0 0 260 260" fill="none" xmlns="http://www.w3.org/2000/svg">
<path d="M42.6806 185.098C31.4316 185.104 22.2909 175.951 22.2889 164.704L22.2849 102.265C22.2808 91.0286 31.4194 81.8778 42.6542 81.8757C48.1163 81.8717 53.2309 83.9903 57.0863 87.8415C60.9416 91.6928 63.0622 96.8156 63.0663 102.261L63.0602 164.702C63.0744 170.144 60.9599 175.262 57.1066 179.112C53.2634 182.971 48.1345 185.096 42.6806 185.098ZM42.6644 87.354C34.4317 87.35 27.7591 94.0389 27.757 102.265L27.7672 164.698C27.7692 172.953 34.4541 179.615 42.6786 179.624C50.9194 179.613 57.5941 172.951 57.5859 164.7V102.257C57.5819 94.0328 50.9011 87.35 42.6644 87.354Z" fill="white"/>
<path d="M202.601 90.4454L197.121 90.4434L62.8164 90.4617L57.3341 90.4637L57.33 84.9814C57.3178 62.4751 69.5784 41.5431 89.6614 29.1769L81.8533 14.9236C80.8986 13.2539 80.6589 11.1394 81.2155 9.20561C81.7802 7.27186 83.1147 5.60826 84.9002 4.65764C85.9341 4.07264 87.1975 3.74764 88.4731 3.74967C91.2397 3.74967 93.7727 5.25076 95.1092 7.67607L103.281 22.5631C111.737 19.4614 120.664 17.879 129.888 17.8811C139.244 17.877 148.216 19.4594 156.709 22.5753L164.868 7.66389C166.183 5.24467 168.734 3.73748 171.496 3.73951C172.74 3.73748 173.981 4.04014 175.073 4.6292C176.908 5.63467 178.187 7.24139 178.75 9.18936C179.311 11.1251 179.085 13.1686 178.104 14.9419L170.3 29.187C190.35 41.5797 202.597 62.4954 202.595 84.9631L202.601 90.4454ZM162.898 31.2873L173.304 12.285C173.859 11.2917 173.497 10.0201 172.494 9.46967C171.476 8.9192 170.221 9.29498 169.683 10.2923L159.169 29.4876C150.325 25.5592 140.422 23.3512 129.955 23.3614C119.511 23.3512 109.627 25.5511 100.809 29.4653L90.285 10.3126C89.7427 9.30311 88.4752 8.93342 87.4839 9.48998C86.4744 10.0303 86.1027 11.2998 86.6653 12.2911L97.0755 31.2792C76.6208 41.8295 62.8002 61.9186 62.8123 84.9834L197.115 84.9672C197.121 61.9105 183.324 41.862 162.898 31.2873ZM99.4094 60.6531C96.3198 60.647 93.797 58.1323 93.797 55.0245C93.797 51.9309 96.3158 49.3898 99.4155 49.3898C102.529 49.3878 105.048 51.9309 105.052 55.0245C105.054 58.1283 102.529 60.6511 99.4094 60.6531ZM160.564 60.6409C157.46 60.645 154.927 58.1323 154.934 55.0123C154.934 51.9228 157.456 49.3817 160.566 49.3695C163.656 49.3797 166.189 51.9248 166.187 55.0144C166.187 58.1242 163.666 60.6429 160.564 60.6409ZM105.038 256.26C93.7991 256.258 84.6523 247.118 84.6503 235.871L84.6462 208.313L79.2878 208.319C73.5658 208.321 68.1952 206.097 64.1591 202.059C60.1169 198.025 57.8886 192.648 57.8967 186.922L57.8764 90.1794V84.6929H63.3587L196.655 84.6726L202.14 84.6686V90.1509L202.154 186.905C202.156 198.705 192.556 208.307 180.761 208.305L175.37 208.309L175.376 235.857C175.376 247.097 166.231 256.248 154.997 256.248C149.551 256.26 144.44 254.144 140.579 250.282C136.717 246.431 134.591 241.312 134.593 235.869V208.309H125.43V235.863C125.426 247.106 116.283 256.262 105.038 256.26Z" fill="white"/>
<path d="M63.3852 186.92C63.377 195.729 70.4884 202.841 79.2919 202.839H90.1245L90.1367 235.875C90.1347 244.101 96.8175 250.786 105.036 250.788C113.275 250.788 119.949 244.095 119.941 235.863L119.943 202.837L140.071 202.83L140.069 235.865C140.077 244.093 146.768 250.786 154.984 250.77C163.223 250.776 169.902 244.083 169.9 235.852L169.89 202.826L180.763 202.824C189.536 202.826 196.672 195.699 196.672 186.905L196.653 90.1469L63.3608 90.1712L63.3852 186.92ZM217.336 185.071C206.091 185.073 196.944 175.935 196.946 164.686L196.93 102.249C196.934 91.002 206.066 81.8533 217.305 81.8533C228.558 81.8512 237.711 90.998 237.709 102.243L237.715 164.675C237.717 175.916 228.579 185.073 217.336 185.071ZM217.315 87.3356C209.083 87.3275 202.412 94.0123 202.412 102.249L202.418 164.684C202.422 172.928 209.093 179.599 217.332 179.593C225.566 179.591 232.231 172.928 232.237 164.677L232.221 102.245C232.219 94.0062 225.552 87.3315 217.315 87.3356Z" fill="white"/>
<path d="M42.6644 87.3539C34.4317 87.3498 27.7591 94.0387 27.757 102.265L27.7672 164.698C27.7692 172.953 34.4459 179.615 42.6806 179.613C50.9194 179.613 57.5941 172.951 57.5859 164.7V102.257C57.5819 94.0326 50.9011 87.3498 42.6644 87.3539ZM162.898 31.2873L173.304 12.285C173.859 11.2917 173.495 10.0283 172.49 9.4656C171.474 8.92731 170.221 9.29294 169.682 10.2923L159.171 29.4937C150.327 25.5572 140.428 23.3512 129.955 23.3614C119.511 23.3512 109.616 25.5511 100.809 29.4653L90.285 10.3126C89.7386 9.3031 88.4792 8.93747 87.4859 9.48794C86.4744 10.0343 86.1026 11.2998 86.6653 12.2911L97.0755 31.2812C76.6208 41.8295 62.8001 61.9186 62.8123 84.9834L197.115 84.9672C197.121 61.9104 183.324 41.862 162.898 31.2873ZM99.4094 60.6531C96.3198 60.647 93.797 58.1323 93.797 55.0245C93.797 51.9309 96.3117 49.3878 99.4155 49.3898C102.529 49.3878 105.048 51.9309 105.052 55.0245C105.054 58.1283 102.529 60.6511 99.4094 60.6531ZM160.564 60.6409C157.46 60.645 154.934 58.1283 154.934 55.0123C154.946 51.9248 157.456 49.3817 160.566 49.3695C163.656 49.3797 166.189 51.9248 166.187 55.0143C166.191 58.1242 163.666 60.6429 160.564 60.6409ZM63.3608 90.1712L63.3831 186.93C63.377 195.731 70.4965 202.837 79.2919 202.837L90.1245 202.841L90.1367 235.877C90.1347 244.103 96.8215 250.79 105.036 250.79C113.275 250.79 119.949 244.097 119.951 235.867L119.943 202.839L140.071 202.832L140.079 235.867C140.079 244.087 146.768 250.788 154.984 250.772C163.223 250.778 169.902 244.085 169.9 235.855L169.89 202.828L180.761 202.82C189.536 202.824 196.674 195.711 196.678 186.907L196.66 90.1489L63.3608 90.1712ZM232.227 102.243C232.225 94.0062 225.552 87.3315 217.315 87.3356C209.083 87.3275 202.412 94.0123 202.412 102.249L202.424 164.686C202.422 172.928 209.093 179.591 217.332 179.593C225.566 179.591 232.235 172.928 232.237 164.677L232.227 102.243Z" fill="#A4C439"/>
</svg>
