<svg width="260" height="260" viewBox="0 0 260 260" fill="none" xmlns="http://www.w3.org/2000/svg">
<path d="M38.2159 231.812L17.7938 2.74622H242.206L221.764 231.778L129.864 257.256L38.2159 231.812Z" fill="#1572B6"/>
<path d="M130.002 237.782L204.263 217.193L221.733 21.4744H130.002V237.782Z" fill="#33A9DC"/>
<path d="M130.002 104.465H167.178L169.746 75.6965H130.002V47.6023H200.45L199.776 55.1403L192.869 132.559H130.002V104.465Z" fill="white"/>
<path d="M130.169 177.428L130.045 177.464L98.7573 169.016L96.7565 146.609H68.5587L72.4932 190.722L130.041 206.694L130.169 206.657V177.428Z" fill="#EBEBEB"/>
<path d="M164.789 131.371L161.405 168.994L130.071 177.452V206.682L187.665 190.72L188.088 185.973L192.975 131.371H164.789Z" fill="white"/>
<path d="M130.098 47.6023V75.6965H62.2375L61.6749 69.3834L60.3952 55.1403L59.7228 47.6023H130.098ZM130.002 104.469V132.563H99.1088L98.5461 126.25L97.2644 112.007L96.5941 104.469H130.002Z" fill="#EBEBEB"/>
</svg>
