<svg width="610" height="694" viewBox="0 0 610 694" fill="none" xmlns="http://www.w3.org/2000/svg">
<g clip-path="url(#clip0_6_24)">
<path d="M573.447 195.448L401.46 195.448C398.191 195.448 395.056 194.15 392.745 191.841C390.433 189.532 389.135 186.4 389.135 183.135V58.0631C389.135 54.7991 390.433 51.6688 392.743 49.3608C395.054 47.0528 398.187 45.7561 401.455 45.7561L573.452 45.7561C576.72 45.7561 579.853 47.0528 582.164 49.3608C584.474 51.6688 585.772 54.7991 585.772 58.0631V183.135C585.772 186.4 584.474 189.532 582.162 191.841C579.851 194.15 576.715 195.448 573.447 195.448Z" fill="white"/>
<path d="M388.62 183.134V58.0623C388.62 54.6619 389.972 51.4007 392.379 48.9962C394.786 46.5917 398.05 45.2409 401.455 45.2409H573.452C576.856 45.2409 580.121 46.5917 582.528 48.9962C584.935 51.4007 586.287 54.6619 586.287 58.0623V183.134C586.287 184.818 585.955 186.486 585.31 188.043C584.664 189.599 583.719 191.013 582.526 192.204C581.334 193.395 579.918 194.34 578.36 194.985C576.802 195.629 575.133 195.961 573.446 195.961H401.46C399.774 195.961 398.104 195.629 396.546 194.985C394.988 194.34 393.573 193.395 392.381 192.204C391.188 191.013 390.242 189.599 389.597 188.043C388.952 186.486 388.62 184.818 388.62 183.134ZM401.455 46.2698C398.324 46.2706 395.322 47.5134 393.109 49.7249C390.896 51.9363 389.653 54.9353 389.653 58.0623V183.134C389.653 186.263 390.897 189.264 393.112 191.477C395.327 193.689 398.331 194.932 401.464 194.932H573.446C576.579 194.932 579.583 193.689 581.798 191.477C584.013 189.264 585.257 186.263 585.257 183.134V58.0623C585.257 54.9347 584.013 51.9352 581.8 49.7237C579.586 47.5122 576.583 46.2698 573.452 46.2698H401.455Z" fill="#292A2E"/>
<path d="M389.135 58.0607V68.4819H585.771V58.0607C585.771 54.7966 584.473 51.6663 582.162 49.3583C579.852 47.0503 576.718 45.7537 573.451 45.7537H401.455C399.837 45.7537 398.235 46.072 396.74 46.6905C395.245 47.309 393.887 48.2155 392.743 49.3583C391.599 50.5012 390.692 51.8579 390.073 53.351C389.454 54.8442 389.135 56.4445 389.135 58.0607Z" fill="#292A2E"/>
<path d="M456.289 85.3275H447.011C446.901 85.3275 446.797 85.2841 446.719 85.207C446.642 85.1298 446.599 85.0251 446.599 84.9159C446.599 84.8068 446.642 84.7021 446.719 84.6249C446.797 84.5478 446.901 84.5044 447.011 84.5044H456.289C456.399 84.5044 456.503 84.5478 456.581 84.6249C456.658 84.7021 456.701 84.8068 456.701 84.9159C456.701 85.0251 456.658 85.1298 456.581 85.207C456.503 85.2841 456.399 85.3275 456.289 85.3275Z" fill="#292A2E"/>
<path d="M440.319 85.3275H436.808C436.699 85.3275 436.594 85.2841 436.517 85.207C436.44 85.1298 436.396 85.0251 436.396 84.9159C436.396 84.8068 436.44 84.7021 436.517 84.6249C436.594 84.5478 436.699 84.5044 436.808 84.5044H440.319C440.429 84.5044 440.533 84.5478 440.611 84.6249C440.688 84.7021 440.731 84.8068 440.731 84.9159C440.731 85.0251 440.688 85.1298 440.611 85.207C440.533 85.2841 440.429 85.3275 440.319 85.3275Z" fill="#367CFF"/>
<path d="M440.319 92.7519H436.808C436.699 92.7519 436.594 92.7085 436.517 92.6313C436.44 92.5541 436.396 92.4495 436.396 92.3403C436.396 92.2312 436.44 92.1265 436.517 92.0493C436.594 91.9721 436.699 91.9288 436.808 91.9288H440.319C440.429 91.9288 440.533 91.9721 440.611 92.0493C440.688 92.1265 440.731 92.2312 440.731 92.3403C440.731 92.4495 440.688 92.5541 440.611 92.6313C440.533 92.7085 440.429 92.7519 440.319 92.7519Z" fill="#367CFF"/>
<path d="M440.319 100.176H436.808C436.699 100.176 436.594 100.133 436.517 100.056C436.44 99.9785 436.396 99.8738 436.396 99.7647C436.396 99.6555 436.44 99.5508 436.517 99.4737C436.594 99.3965 436.699 99.3531 436.808 99.3531H440.319C440.429 99.3531 440.533 99.3965 440.611 99.4737C440.688 99.5508 440.731 99.6555 440.731 99.7647C440.731 99.8738 440.688 99.9785 440.611 100.056C440.533 100.133 440.429 100.176 440.319 100.176Z" fill="#367CFF"/>
<path d="M440.319 107.601H436.808C436.699 107.601 436.594 107.557 436.517 107.48C436.44 107.403 436.396 107.298 436.396 107.189C436.396 107.08 436.44 106.975 436.517 106.898C436.594 106.821 436.699 106.777 436.808 106.777H440.319C440.429 106.777 440.533 106.821 440.611 106.898C440.688 106.975 440.731 107.08 440.731 107.189C440.731 107.298 440.688 107.403 440.611 107.48C440.533 107.557 440.429 107.601 440.319 107.601Z" fill="#367CFF"/>
<path d="M440.319 115.025H436.808C436.699 115.025 436.594 114.982 436.517 114.904C436.44 114.827 436.396 114.723 436.396 114.613C436.396 114.504 436.44 114.4 436.517 114.322C436.594 114.245 436.699 114.202 436.808 114.202H440.319C440.429 114.202 440.533 114.245 440.611 114.322C440.688 114.4 440.731 114.504 440.731 114.613C440.731 114.723 440.688 114.827 440.611 114.904C440.533 114.982 440.429 115.025 440.319 115.025Z" fill="#367CFF"/>
<path d="M440.319 122.449H436.808C436.699 122.449 436.594 122.406 436.517 122.329C436.44 122.252 436.396 122.147 436.396 122.038C436.396 121.929 436.44 121.824 436.517 121.747C436.594 121.67 436.699 121.626 436.808 121.626H440.319C440.429 121.626 440.533 121.67 440.611 121.747C440.688 121.824 440.731 121.929 440.731 122.038C440.731 122.147 440.688 122.252 440.611 122.329C440.533 122.406 440.429 122.449 440.319 122.449Z" fill="#367CFF"/>
<path d="M440.319 129.874H436.808C436.699 129.874 436.594 129.83 436.517 129.753C436.44 129.676 436.396 129.571 436.396 129.462C436.396 129.353 436.44 129.248 436.517 129.171C436.594 129.094 436.699 129.051 436.808 129.051H440.319C440.429 129.051 440.533 129.094 440.611 129.171C440.688 129.248 440.731 129.353 440.731 129.462C440.731 129.571 440.688 129.676 440.611 129.753C440.533 129.83 440.429 129.874 440.319 129.874Z" fill="#367CFF"/>
<path d="M440.319 137.298H436.808C436.699 137.298 436.594 137.255 436.517 137.177C436.44 137.1 436.396 136.996 436.396 136.886C436.396 136.777 436.44 136.673 436.517 136.595C436.594 136.518 436.699 136.475 436.808 136.475H440.319C440.429 136.475 440.533 136.518 440.611 136.595C440.688 136.673 440.731 136.777 440.731 136.886C440.731 136.996 440.688 137.1 440.611 137.177C440.533 137.255 440.429 137.298 440.319 137.298Z" fill="#367CFF"/>
<path d="M440.319 144.722H436.808C436.699 144.722 436.594 144.679 436.517 144.602C436.44 144.525 436.396 144.42 436.396 144.311C436.396 144.202 436.44 144.097 436.517 144.02C436.594 143.943 436.699 143.899 436.808 143.899H440.319C440.429 143.899 440.533 143.943 440.611 144.02C440.688 144.097 440.731 144.202 440.731 144.311C440.731 144.42 440.688 144.525 440.611 144.602C440.533 144.679 440.429 144.722 440.319 144.722Z" fill="#367CFF"/>
<path d="M440.319 152.147H436.808C436.699 152.147 436.594 152.103 436.517 152.026C436.44 151.949 436.396 151.844 436.396 151.735C436.396 151.626 436.44 151.521 436.517 151.444C436.594 151.367 436.699 151.324 436.808 151.324H440.319C440.429 151.324 440.533 151.367 440.611 151.444C440.688 151.521 440.731 151.626 440.731 151.735C440.731 151.844 440.688 151.949 440.611 152.026C440.533 152.103 440.429 152.147 440.319 152.147Z" fill="#367CFF"/>
<path d="M440.319 159.571H436.808C436.699 159.571 436.594 159.528 436.517 159.451C436.44 159.373 436.396 159.269 436.396 159.16C436.396 159.05 436.44 158.946 436.517 158.869C436.594 158.791 436.699 158.748 436.808 158.748H440.319C440.429 158.748 440.533 158.791 440.611 158.869C440.688 158.946 440.731 159.05 440.731 159.16C440.731 159.269 440.688 159.373 440.611 159.451C440.533 159.528 440.429 159.571 440.319 159.571Z" fill="#367CFF"/>
<path d="M440.319 166.995H436.808C436.699 166.995 436.594 166.952 436.517 166.875C436.44 166.798 436.396 166.693 436.396 166.584C436.396 166.475 436.44 166.37 436.517 166.293C436.594 166.216 436.699 166.172 436.808 166.172H440.319C440.429 166.172 440.533 166.216 440.611 166.293C440.688 166.37 440.731 166.475 440.731 166.584C440.731 166.693 440.688 166.798 440.611 166.875C440.533 166.952 440.429 166.995 440.319 166.995Z" fill="#367CFF"/>
<path d="M440.319 174.42H436.808C436.699 174.42 436.594 174.376 436.517 174.299C436.44 174.222 436.396 174.117 436.396 174.008C436.396 173.899 436.44 173.794 436.517 173.717C436.594 173.64 436.699 173.597 436.808 173.597H440.319C440.429 173.597 440.533 173.64 440.611 173.717C440.688 173.794 440.731 173.899 440.731 174.008C440.731 174.117 440.688 174.222 440.611 174.299C440.533 174.376 440.429 174.42 440.319 174.42Z" fill="#367CFF"/>
<path d="M440.319 181.845H436.808C436.699 181.845 436.594 181.802 436.517 181.724C436.44 181.647 436.396 181.543 436.396 181.433C436.396 181.324 436.44 181.22 436.517 181.142C436.594 181.065 436.699 181.022 436.808 181.022H440.319C440.429 181.022 440.533 181.065 440.611 181.142C440.688 181.22 440.731 181.324 440.731 181.433C440.731 181.543 440.688 181.647 440.611 181.724C440.533 181.802 440.429 181.845 440.319 181.845Z" fill="#367CFF"/>
<path d="M463.705 92.7518H455.25C455.141 92.7518 455.036 92.7085 454.959 92.6313C454.882 92.5541 454.838 92.4494 454.838 92.3403C454.838 92.2311 454.882 92.1265 454.959 92.0493C455.036 91.9721 455.141 91.9287 455.25 91.9287H463.705C463.814 91.9287 463.919 91.9721 463.996 92.0493C464.074 92.1265 464.117 92.2311 464.117 92.3403C464.117 92.4494 464.074 92.5541 463.996 92.6313C463.919 92.7085 463.814 92.7518 463.705 92.7518Z" fill="#292A2E"/>
<path d="M456.289 137.298H447.011C446.901 137.298 446.797 137.255 446.719 137.177C446.642 137.1 446.599 136.996 446.599 136.886C446.599 136.777 446.642 136.673 446.719 136.595C446.797 136.518 446.901 136.475 447.011 136.475H456.289C456.399 136.475 456.503 136.518 456.581 136.595C456.658 136.673 456.701 136.777 456.701 136.886C456.701 136.996 456.658 137.1 456.581 137.177C456.503 137.255 456.399 137.298 456.289 137.298Z" fill="#292A2E"/>
<path d="M463.705 144.722H455.25C455.141 144.722 455.036 144.679 454.959 144.602C454.882 144.525 454.838 144.42 454.838 144.311C454.838 144.202 454.882 144.097 454.959 144.02C455.036 143.943 455.141 143.899 455.25 143.899H463.705C463.814 143.899 463.919 143.943 463.996 144.02C464.074 144.097 464.117 144.202 464.117 144.311C464.117 144.42 464.074 144.525 463.996 144.602C463.919 144.679 463.814 144.722 463.705 144.722Z" fill="#292A2E"/>
<path d="M511.495 100.176H461.018C460.909 100.176 460.804 100.133 460.727 100.056C460.65 99.9785 460.606 99.8738 460.606 99.7647C460.606 99.6555 460.65 99.5508 460.727 99.4737C460.804 99.3965 460.909 99.3531 461.018 99.3531H511.495C511.604 99.3531 511.709 99.3965 511.786 99.4737C511.864 99.5508 511.907 99.6555 511.907 99.7647C511.907 99.8738 511.864 99.9785 511.786 100.056C511.709 100.133 511.604 100.176 511.495 100.176Z" fill="#292A2E"/>
<path d="M556.061 100.176H520.416C520.307 100.176 520.202 100.133 520.125 100.056C520.048 99.9785 520.004 99.8738 520.004 99.7647C520.004 99.6555 520.048 99.5508 520.125 99.4737C520.202 99.3965 520.307 99.3531 520.416 99.3531H556.061C556.17 99.3531 556.275 99.3965 556.352 99.4737C556.429 99.5508 556.473 99.6555 556.473 99.7647C556.473 99.8738 556.429 99.9785 556.352 100.056C556.275 100.133 556.17 100.176 556.061 100.176Z" fill="#0CBC8B"/>
<path d="M575.19 100.176H564.264C564.155 100.176 564.05 100.133 563.973 100.056C563.896 99.9785 563.852 99.8738 563.852 99.7647C563.852 99.6555 563.896 99.5508 563.973 99.4737C564.05 99.3965 564.155 99.3531 564.264 99.3531H575.19C575.299 99.3531 575.404 99.3965 575.481 99.4737C575.559 99.5508 575.602 99.6555 575.602 99.7647C575.602 99.8738 575.559 99.9785 575.481 100.056C575.404 100.133 575.299 100.176 575.19 100.176Z" fill="#292A2E"/>
<path d="M536.214 115.025H461.018C460.909 115.025 460.804 114.982 460.727 114.904C460.65 114.827 460.606 114.723 460.606 114.613C460.606 114.504 460.65 114.4 460.727 114.322C460.804 114.245 460.909 114.202 461.018 114.202H536.214C536.323 114.202 536.428 114.245 536.505 114.322C536.583 114.4 536.626 114.504 536.626 114.613C536.626 114.723 536.583 114.827 536.505 114.904C536.428 114.982 536.323 115.025 536.214 115.025Z" fill="#292A2E"/>
<path d="M556.061 115.025H545.135C545.026 115.025 544.921 114.982 544.844 114.904C544.766 114.827 544.723 114.723 544.723 114.613C544.723 114.504 544.766 114.4 544.844 114.322C544.921 114.245 545.026 114.202 545.135 114.202H556.061C556.17 114.202 556.275 114.245 556.352 114.322C556.429 114.4 556.473 114.504 556.473 114.613C556.473 114.723 556.429 114.827 556.352 114.904C556.275 114.982 556.17 115.025 556.061 115.025Z" fill="#367CFF"/>
<path d="M470.297 107.601H461.018C460.909 107.601 460.804 107.557 460.727 107.48C460.65 107.403 460.606 107.298 460.606 107.189C460.606 107.08 460.65 106.975 460.727 106.898C460.804 106.821 460.909 106.777 461.018 106.777H470.297C470.406 106.777 470.511 106.821 470.588 106.898C470.665 106.975 470.709 107.08 470.709 107.189C470.709 107.298 470.665 107.403 470.588 107.48C470.511 107.557 470.406 107.601 470.297 107.601Z" fill="#0CBC8B"/>
<path d="M531.342 107.601H479.218C479.109 107.601 479.004 107.557 478.927 107.48C478.849 107.403 478.806 107.298 478.806 107.189C478.806 107.08 478.849 106.975 478.927 106.898C479.004 106.821 479.109 106.777 479.218 106.777H531.342C531.451 106.777 531.556 106.821 531.633 106.898C531.711 106.975 531.754 107.08 531.754 107.189C531.754 107.298 531.711 107.403 531.633 107.48C531.556 107.557 531.451 107.601 531.342 107.601Z" fill="#367CFF"/>
<path d="M575.262 107.601H541.262C541.153 107.601 541.048 107.557 540.971 107.48C540.894 107.403 540.85 107.298 540.85 107.189C540.85 107.08 540.894 106.975 540.971 106.898C541.048 106.821 541.153 106.777 541.262 106.777H575.26C575.369 106.777 575.474 106.821 575.551 106.898C575.629 106.975 575.672 107.08 575.672 107.189C575.672 107.298 575.629 107.403 575.551 107.48C575.474 107.557 575.369 107.601 575.26 107.601H575.262Z" fill="#292A2E"/>
<path d="M511.495 122.449H461.018C460.909 122.449 460.804 122.406 460.727 122.329C460.65 122.252 460.606 122.147 460.606 122.038C460.606 121.929 460.65 121.824 460.727 121.747C460.804 121.67 460.909 121.626 461.018 121.626H511.495C511.604 121.626 511.709 121.67 511.786 121.747C511.864 121.824 511.907 121.929 511.907 122.038C511.907 122.147 511.864 122.252 511.786 122.329C511.709 122.406 511.604 122.449 511.495 122.449Z" fill="#292A2E"/>
<path d="M539.582 122.449H520.416C520.307 122.449 520.202 122.406 520.125 122.329C520.048 122.252 520.004 122.147 520.004 122.038C520.004 121.929 520.048 121.824 520.125 121.747C520.202 121.67 520.307 121.626 520.416 121.626H539.582C539.691 121.626 539.796 121.67 539.873 121.747C539.95 121.824 539.994 121.929 539.994 122.038C539.994 122.147 539.95 122.252 539.873 122.329C539.796 122.406 539.691 122.449 539.582 122.449Z" fill="#0CBC8B"/>
<path d="M575.19 122.449H547.785C547.676 122.449 547.571 122.406 547.494 122.329C547.416 122.252 547.373 122.147 547.373 122.038C547.373 121.929 547.416 121.824 547.494 121.747C547.571 121.67 547.676 121.626 547.785 121.626H575.19C575.299 121.626 575.404 121.67 575.481 121.747C575.559 121.824 575.602 121.929 575.602 122.038C575.602 122.147 575.559 122.252 575.481 122.329C575.404 122.406 575.299 122.449 575.19 122.449Z" fill="#292A2E"/>
<path d="M470.297 129.874H461.018C460.909 129.874 460.804 129.83 460.727 129.753C460.65 129.676 460.606 129.571 460.606 129.462C460.606 129.353 460.65 129.248 460.727 129.171C460.804 129.094 460.909 129.051 461.018 129.051H470.297C470.406 129.051 470.511 129.094 470.588 129.171C470.665 129.248 470.709 129.353 470.709 129.462C470.709 129.571 470.665 129.676 470.588 129.753C470.511 129.83 470.406 129.874 470.297 129.874Z" fill="#367CFF"/>
<path d="M531.342 129.874H479.218C479.109 129.874 479.004 129.83 478.927 129.753C478.849 129.676 478.806 129.571 478.806 129.462C478.806 129.353 478.849 129.248 478.927 129.171C479.004 129.094 479.109 129.051 479.218 129.051H531.342C531.451 129.051 531.556 129.094 531.633 129.171C531.711 129.248 531.754 129.353 531.754 129.462C531.754 129.571 531.711 129.676 531.633 129.753C531.556 129.83 531.451 129.874 531.342 129.874Z" fill="#0CBC8B"/>
<path d="M509.847 159.571H459.37C459.261 159.571 459.156 159.528 459.079 159.451C459.002 159.373 458.958 159.269 458.958 159.16C458.958 159.05 459.002 158.946 459.079 158.869C459.156 158.791 459.261 158.748 459.37 158.748H509.847C509.956 158.748 510.061 158.791 510.138 158.869C510.216 158.946 510.259 159.05 510.259 159.16C510.259 159.269 510.216 159.373 510.138 159.451C510.061 159.528 509.956 159.571 509.847 159.571Z" fill="#292A2E"/>
<path d="M554.413 159.571H518.768C518.659 159.571 518.554 159.528 518.477 159.451C518.4 159.373 518.356 159.269 518.356 159.16C518.356 159.05 518.4 158.946 518.477 158.869C518.554 158.791 518.659 158.748 518.768 158.748H554.413C554.522 158.748 554.627 158.791 554.704 158.869C554.782 158.946 554.825 159.05 554.825 159.16C554.825 159.269 554.782 159.373 554.704 159.451C554.627 159.528 554.522 159.571 554.413 159.571Z" fill="#367CFF"/>
<path d="M485.128 152.147H459.37C459.261 152.147 459.156 152.103 459.079 152.026C459.002 151.949 458.958 151.844 458.958 151.735C458.958 151.626 459.002 151.521 459.079 151.444C459.156 151.367 459.261 151.324 459.37 151.324H485.128C485.237 151.324 485.342 151.367 485.419 151.444C485.497 151.521 485.54 151.626 485.54 151.735C485.54 151.844 485.497 151.949 485.419 152.026C485.342 152.103 485.237 152.147 485.128 152.147Z" fill="#0CBC8B"/>
<path d="M529.694 152.147H494.049C493.94 152.147 493.835 152.103 493.758 152.026C493.681 151.949 493.637 151.844 493.637 151.735C493.637 151.626 493.681 151.521 493.758 151.444C493.835 151.367 493.94 151.324 494.049 151.324H529.694C529.803 151.324 529.908 151.367 529.985 151.444C530.063 151.521 530.106 151.626 530.106 151.735C530.106 151.844 530.063 151.949 529.985 152.026C529.908 152.103 529.803 152.147 529.694 152.147Z" fill="#367CFF"/>
<path d="M573.614 152.147H539.614C539.505 152.147 539.4 152.103 539.323 152.026C539.246 151.949 539.203 151.844 539.203 151.735C539.203 151.626 539.246 151.521 539.323 151.444C539.4 151.367 539.505 151.324 539.614 151.324H573.612C573.721 151.324 573.826 151.367 573.903 151.444C573.981 151.521 574.024 151.626 574.024 151.735C574.024 151.844 573.981 151.949 573.903 152.026C573.826 152.103 573.721 152.147 573.612 152.147H573.614Z" fill="#292A2E"/>
<path d="M534.566 174.421H459.37C459.261 174.421 459.156 174.377 459.079 174.3C459.002 174.223 458.958 174.118 458.958 174.009C458.958 173.9 459.002 173.795 459.079 173.718C459.156 173.641 459.261 173.598 459.37 173.598H534.566C534.675 173.598 534.78 173.641 534.857 173.718C534.935 173.795 534.978 173.9 534.978 174.009C534.978 174.118 534.935 174.223 534.857 174.3C534.78 174.377 534.675 174.421 534.566 174.421Z" fill="#367CFF"/>
<path d="M554.413 174.421H543.487C543.378 174.421 543.273 174.377 543.196 174.3C543.119 174.223 543.075 174.118 543.075 174.009C543.075 173.9 543.119 173.795 543.196 173.718C543.273 173.641 543.378 173.598 543.487 173.598H554.413C554.522 173.598 554.627 173.641 554.704 173.718C554.781 173.795 554.825 173.9 554.825 174.009C554.825 174.118 554.781 174.223 554.704 174.3C554.627 174.377 554.522 174.421 554.413 174.421Z" fill="#292A2E"/>
<path d="M468.649 166.996H459.37C459.261 166.996 459.156 166.953 459.079 166.876C459.002 166.799 458.958 166.694 458.958 166.585C458.958 166.476 459.002 166.371 459.079 166.294C459.156 166.217 459.261 166.173 459.37 166.173H468.649C468.758 166.173 468.863 166.217 468.94 166.294C469.017 166.371 469.061 166.476 469.061 166.585C469.061 166.694 469.017 166.799 468.94 166.876C468.863 166.953 468.758 166.996 468.649 166.996Z" fill="#367CFF"/>
<path d="M529.694 166.996H477.57C477.461 166.996 477.356 166.953 477.279 166.876C477.201 166.799 477.158 166.694 477.158 166.585C477.158 166.476 477.201 166.371 477.279 166.294C477.356 166.217 477.461 166.173 477.57 166.173H529.694C529.803 166.173 529.908 166.217 529.985 166.294C530.063 166.371 530.106 166.476 530.106 166.585C530.106 166.694 530.063 166.799 529.985 166.876C529.908 166.953 529.803 166.996 529.694 166.996Z" fill="#292A2E"/>
<path d="M573.614 166.996H539.614C539.505 166.996 539.4 166.953 539.323 166.876C539.246 166.799 539.203 166.694 539.203 166.585C539.203 166.476 539.246 166.371 539.323 166.294C539.4 166.217 539.505 166.173 539.614 166.173H573.612C573.721 166.173 573.826 166.217 573.903 166.294C573.981 166.371 574.024 166.476 574.024 166.585C574.024 166.694 573.981 166.799 573.903 166.876C573.826 166.953 573.721 166.996 573.612 166.996H573.614Z" fill="#0CBC8B"/>
<path d="M509.847 181.845H459.37C459.261 181.845 459.156 181.802 459.079 181.724C459.002 181.647 458.958 181.543 458.958 181.433C458.958 181.324 459.002 181.22 459.079 181.142C459.156 181.065 459.261 181.022 459.37 181.022H509.847C509.956 181.022 510.061 181.065 510.138 181.142C510.216 181.22 510.259 181.324 510.259 181.433C510.259 181.543 510.216 181.647 510.138 181.724C510.061 181.802 509.956 181.845 509.847 181.845Z" fill="#0CBC8B"/>
<path d="M537.934 181.845H518.768C518.659 181.845 518.554 181.802 518.477 181.724C518.4 181.647 518.356 181.543 518.356 181.433C518.356 181.324 518.4 181.22 518.477 181.142C518.554 181.065 518.659 181.022 518.768 181.022H537.934C538.043 181.022 538.148 181.065 538.225 181.142C538.302 181.22 538.346 181.324 538.346 181.433C538.346 181.543 538.302 181.647 538.225 181.724C538.148 181.802 538.043 181.845 537.934 181.845Z" fill="#292A2E"/>
<path d="M573.542 181.845H546.137C546.028 181.845 545.923 181.802 545.846 181.724C545.768 181.647 545.725 181.543 545.725 181.433C545.725 181.324 545.768 181.22 545.846 181.142C545.923 181.065 546.028 181.022 546.137 181.022H573.542C573.651 181.022 573.756 181.065 573.833 181.142C573.911 181.22 573.954 181.324 573.954 181.433C573.954 181.543 573.911 181.647 573.833 181.724C573.756 181.802 573.651 181.845 573.542 181.845Z" fill="#367CFF"/>
<path d="M432.895 189.79C432.786 189.79 432.681 189.746 432.604 189.669C432.527 189.592 432.483 189.487 432.483 189.378V72.3669C432.483 72.2578 432.527 72.1531 432.604 72.0759C432.681 71.9988 432.786 71.9554 432.895 71.9554C433.005 71.9554 433.109 71.9988 433.187 72.0759C433.264 72.1531 433.307 72.2578 433.307 72.3669V189.378C433.307 189.487 433.264 189.592 433.187 189.669C433.109 189.746 433.005 189.79 432.895 189.79Z" fill="#292A2E"/>
<path d="M570.874 64.545C574.525 64.545 577.484 61.5888 577.484 57.9421C577.484 54.2954 574.525 51.3392 570.874 51.3392C567.224 51.3392 564.264 54.2954 564.264 57.9421C564.264 61.5888 567.224 64.545 570.874 64.545Z" fill="white"/>
<path d="M414.052 77.508H396.212C396.102 77.508 395.998 77.4647 395.92 77.3875C395.843 77.3103 395.8 77.2056 395.8 77.0965C395.8 76.9873 395.843 76.8827 395.92 76.8055C395.998 76.7283 396.102 76.6849 396.212 76.6849H414.052C414.161 76.6849 414.266 76.7283 414.343 76.8055C414.421 76.8827 414.464 76.9873 414.464 77.0965C414.464 77.2056 414.421 77.3103 414.343 77.3875C414.266 77.4647 414.161 77.508 414.052 77.508Z" fill="#292A2E"/>
<path d="M408.677 85.6255H396.212C396.102 85.6255 395.998 85.5821 395.92 85.5049C395.843 85.4277 395.8 85.3231 395.8 85.2139C395.8 85.1048 395.843 85.0001 395.92 84.9229C395.998 84.8457 396.102 84.8024 396.212 84.8024H408.677C408.787 84.8024 408.891 84.8457 408.969 84.9229C409.046 85.0001 409.089 85.1048 409.089 85.2139C409.089 85.3231 409.046 85.4277 408.969 85.5049C408.891 85.5821 408.787 85.6255 408.677 85.6255Z" fill="#292A2E"/>
<path d="M419.64 93.7429H396.212C396.102 93.7429 395.998 93.6995 395.92 93.6223C395.843 93.5451 395.8 93.4405 395.8 93.3313C395.8 93.2222 395.843 93.1175 395.92 93.0403C395.998 92.9631 396.102 92.9198 396.212 92.9198H419.64C419.75 92.9198 419.854 92.9631 419.932 93.0403C420.009 93.1175 420.052 93.2222 420.052 93.3313C420.052 93.4405 420.009 93.5451 419.932 93.6223C419.854 93.6995 419.75 93.7429 419.64 93.7429Z" fill="#292A2E"/>
<path d="M424.012 101.86H404.451C404.342 101.86 404.237 101.817 404.16 101.74C404.083 101.663 404.039 101.558 404.039 101.449C404.039 101.34 404.083 101.235 404.16 101.158C404.237 101.081 404.342 101.037 404.451 101.037H424.012C424.121 101.037 424.226 101.081 424.304 101.158C424.381 101.235 424.424 101.34 424.424 101.449C424.424 101.558 424.381 101.663 424.304 101.74C424.226 101.817 424.121 101.86 424.012 101.86Z" fill="#292A2E"/>
<path d="M414.553 109.979H404.451C404.342 109.979 404.237 109.935 404.16 109.858C404.083 109.781 404.039 109.676 404.039 109.567C404.039 109.458 404.083 109.353 404.16 109.276C404.237 109.199 404.342 109.155 404.451 109.155H414.553C414.662 109.155 414.767 109.199 414.844 109.276C414.922 109.353 414.965 109.458 414.965 109.567C414.965 109.676 414.922 109.781 414.844 109.858C414.767 109.935 414.662 109.979 414.553 109.979Z" fill="#292A2E"/>
<path d="M422.292 118.096H404.451C404.342 118.096 404.237 118.053 404.16 117.975C404.083 117.898 404.039 117.794 404.039 117.684C404.039 117.575 404.083 117.471 404.16 117.393C404.237 117.316 404.342 117.273 404.451 117.273H422.292C422.401 117.273 422.506 117.316 422.583 117.393C422.66 117.471 422.704 117.575 422.704 117.684C422.704 117.794 422.66 117.898 422.583 117.975C422.506 118.053 422.401 118.096 422.292 118.096Z" fill="#292A2E"/>
<path d="M409.968 126.213H396.212C396.102 126.213 395.998 126.17 395.92 126.093C395.843 126.016 395.8 125.911 395.8 125.802C395.8 125.693 395.843 125.588 395.92 125.511C395.998 125.434 396.102 125.39 396.212 125.39H409.968C410.077 125.39 410.182 125.434 410.259 125.511C410.336 125.588 410.38 125.693 410.38 125.802C410.38 125.911 410.336 126.016 410.259 126.093C410.182 126.17 410.077 126.213 409.968 126.213Z" fill="#292A2E"/>
<path d="M405.239 134.33H396.212C396.102 134.33 395.998 134.287 395.92 134.209C395.843 134.132 395.8 134.028 395.8 133.918C395.8 133.809 395.843 133.705 395.92 133.627C395.998 133.55 396.102 133.507 396.212 133.507H405.239C405.348 133.507 405.453 133.55 405.53 133.627C405.608 133.705 405.651 133.809 405.651 133.918C405.651 134.028 405.608 134.132 405.53 134.209C405.453 134.287 405.348 134.33 405.239 134.33Z" fill="#292A2E"/>
<path d="M439.759 75.7664V75.9145L444.909 77.8241C444.982 77.8541 445.045 77.9054 445.089 77.9714C445.133 78.0374 445.157 78.1151 445.156 78.1945V78.3344C445.157 78.3962 445.143 78.4574 445.114 78.5121C445.085 78.5668 445.043 78.6133 444.991 78.6472C444.939 78.684 444.878 78.707 444.815 78.7142C444.751 78.7214 444.687 78.7125 444.628 78.6884L438.811 76.4166C438.739 76.3876 438.677 76.3377 438.633 76.2732C438.588 76.2087 438.565 76.1325 438.564 76.0544V75.6347C438.564 75.5563 438.587 75.4797 438.631 75.4149C438.675 75.3502 438.738 75.3005 438.811 75.2725L444.628 72.9925C444.676 72.9763 444.726 72.968 444.776 72.9678C444.853 72.9694 444.927 72.9922 444.991 73.0337C445.043 73.0693 445.085 73.1173 445.114 73.1734C445.143 73.2294 445.157 73.2917 445.156 73.3547V73.4946C445.158 73.5732 445.135 73.6503 445.09 73.7153C445.046 73.7802 444.983 73.8297 444.909 73.8568L439.759 75.7664Z" fill="#367CFF"/>
<path d="M449.967 71.3134L446.885 80.7379C446.86 80.8165 446.811 80.8852 446.744 80.934C446.678 80.9828 446.597 81.0092 446.515 81.0095C446.455 81.0104 446.396 80.9966 446.343 80.9694C446.29 80.9421 446.244 80.9022 446.21 80.8531C446.173 80.8045 446.148 80.7479 446.137 80.6879C446.125 80.6279 446.128 80.5661 446.145 80.5074L449.226 71.0912C449.252 71.011 449.302 70.941 449.37 70.8908C449.438 70.8407 449.52 70.8129 449.605 70.8113C449.664 70.8111 449.723 70.8252 449.776 70.8524C449.829 70.8796 449.875 70.9191 449.909 70.9677C449.946 71.0163 449.971 71.0732 449.981 71.1334C449.991 71.1937 449.986 71.2554 449.967 71.3134Z" fill="#367CFF"/>
<path d="M457.534 75.6347V76.0544C457.535 76.1318 457.513 76.2077 457.471 76.2723C457.428 76.3369 457.367 76.3872 457.295 76.4166L451.47 78.6884C451.412 78.7123 451.349 78.721 451.287 78.7138C451.225 78.7066 451.166 78.6837 451.116 78.6472C451.063 78.6137 451.019 78.5675 450.989 78.5129C450.959 78.4582 450.943 78.3969 450.943 78.3344V78.1945C450.942 78.114 450.966 78.0353 451.012 77.969C451.057 77.9028 451.123 77.8522 451.198 77.8241L456.348 75.9145V75.7664L451.198 73.8568C451.122 73.8316 451.057 73.7829 451.011 73.7177C450.965 73.6525 450.941 73.5743 450.943 73.4946V73.3547C450.943 73.2911 450.959 73.2286 450.989 73.1726C451.019 73.1166 451.063 73.0689 451.116 73.0337C451.18 72.9924 451.254 72.9696 451.33 72.9678C451.378 72.9673 451.425 72.9756 451.47 72.9925L457.295 75.2725C457.368 75.301 457.429 75.3511 457.472 75.4159C457.515 75.4807 457.537 75.5571 457.534 75.6347Z" fill="#367CFF"/>
<path d="M341.039 0H50.818V289.916H341.039V0Z" fill="#F4F4F4"/>
<path d="M50.818 0H47.4917V289.916H50.818V0Z" fill="#F4F4F4"/>
<path opacity="0.05" d="M50.818 0H47.4917V289.916H50.818V0Z" fill="#292A2E"/>
<path opacity="0.05" d="M121.125 199.776V123.924H183.325V167.993H279.671V246.021H320.62V289.916H279.671H271.782H64.7793V199.776H121.125Z" fill="#292A2E"/>
<path opacity="0.34" d="M175.34 132.16H130.046V140.396H175.34V132.16Z" fill="#FFFFFA"/>
<path opacity="0.34" d="M175.34 149.226H130.046V157.462H175.34V149.226Z" fill="#FFFFFA"/>
<path opacity="0.34" d="M175.34 166.293H130.046V174.528H175.34V166.293Z" fill="#FFFFFA"/>
<path opacity="0.34" d="M81.1588 207.77H72.8104V216.006H81.1588V207.77Z" fill="#FFFFFA"/>
<path opacity="0.34" d="M81.1588 224.836H72.8104V233.072H81.1588V224.836Z" fill="#FFFFFA"/>
<path opacity="0.34" d="M81.1588 241.903H72.8104V250.139H81.1588V241.903Z" fill="#FFFFFA"/>
<path opacity="0.34" d="M96.6033 207.77H88.2549V216.006H96.6033V207.77Z" fill="#FFFFFA"/>
<path opacity="0.34" d="M96.6033 224.836H88.2549V233.072H96.6033V224.836Z" fill="#FFFFFA"/>
<path opacity="0.34" d="M96.6033 241.903H88.2549V250.139H96.6033V241.903Z" fill="#FFFFFA"/>
<path opacity="0.34" d="M111.631 207.77H103.282V216.006H111.631V207.77Z" fill="#FFFFFA"/>
<path opacity="0.34" d="M111.631 224.836H103.282V233.072H111.631V224.836Z" fill="#FFFFFA"/>
<path opacity="0.34" d="M111.631 241.903H103.282V250.139H111.631V241.903Z" fill="#FFFFFA"/>
<path d="M50.818 143.332H109.216V0H114.045V143.332H271.782V0H276.612V143.332H341.039V148.156H276.612V289.916H271.782V148.156H114.045V289.916H109.216V148.156H50.818V143.332Z" fill="white"/>
<path d="M352.601 289.567H39.257V299.208H352.601V289.567Z" fill="#F4F4F4"/>
<path opacity="0.1" d="M352.601 289.567H39.257V299.208H352.601V289.567Z" fill="#292A2E"/>
<path opacity="0.1" d="M39.2569 289.567H34.7325V299.208H39.2569V289.567Z" fill="#292A2E"/>
<path opacity="0.1" d="M39.2569 289.567H34.7325V299.208H39.2569V289.567Z" fill="#292A2E"/>
<path d="M47.4918 12.3432L341.039 12.3432V5.17484L47.4918 5.17484V12.3432Z" fill="white"/>
<path d="M47.4918 25.7334L341.039 25.7334V18.565L47.4918 18.565V25.7334Z" fill="white"/>
<path d="M47.4918 39.1228L341.039 39.1228V31.9544L47.4918 31.9544V39.1228Z" fill="white"/>
<path d="M47.4918 52.5121L341.039 52.5121V45.3438L47.4918 45.3438V52.5121Z" fill="white"/>
<path d="M47.4918 65.9007L341.039 65.9007V58.7323L47.4918 58.7323V65.9007Z" fill="white"/>
<path d="M78.6697 73.986H83.0688L83.0688 0H78.6697L78.6697 73.986Z" fill="white"/>
<path d="M80.4964 84.6114C83.8343 84.6114 86.5402 81.9083 86.5402 78.574C86.5402 75.2396 83.8343 72.5365 80.4964 72.5365C77.1585 72.5365 74.4526 75.2396 74.4526 78.574C74.4526 81.9083 77.1585 84.6114 80.4964 84.6114Z" fill="white"/>
<path d="M50.0542 692.899L48.4359 692.588L73.7283 441.517L75.3466 441.828L50.0542 692.899Z" fill="#494949"/>
<path d="M144.232 692.899L142.613 692.588L167.905 441.517L169.523 441.828L144.232 692.899Z" fill="#494949"/>
<path d="M352.405 692.899L354.023 692.588L328.73 441.517L327.112 441.828L352.405 692.899Z" fill="#494949"/>
<path d="M258.227 692.899L259.845 692.588L234.554 441.517L232.936 441.828L258.227 692.899Z" fill="#494949"/>
<path d="M224.686 331.02L223.053 331.237L237.828 441.783L239.461 441.565L224.686 331.02Z" fill="#494949"/>
<path d="M55.094 331.018L53.4606 331.236L68.2359 441.782L69.8693 441.564L55.094 331.018Z" fill="#494949"/>
<path d="M239.319 433.577H73.4383C68.9627 433.577 65.3346 437.201 65.3346 441.672V441.673C65.3346 446.144 68.9627 449.768 73.4383 449.768H239.319C243.794 449.768 247.423 446.144 247.423 441.673V441.672C247.423 437.201 243.794 433.577 239.319 433.577Z" fill="#292A2E"/>
<path opacity="0.8" d="M239.319 433.577H73.4383C68.9627 433.577 65.3346 437.201 65.3346 441.672V441.673C65.3346 446.144 68.9627 449.768 73.4383 449.768H239.319C243.794 449.768 247.423 446.144 247.423 441.673V441.672C247.423 437.201 243.794 433.577 239.319 433.577Z" fill="white"/>
<path d="M239.319 450.591H73.4391C72.2667 450.591 71.1058 450.36 70.0227 449.912C68.9395 449.463 67.9553 448.807 67.1263 447.978C66.2973 447.15 65.6397 446.167 65.1911 445.085C64.7424 444.003 64.5115 442.843 64.5115 441.672C64.5115 440.501 64.7424 439.341 65.1911 438.259C65.6397 437.177 66.2973 436.194 67.1263 435.366C67.9553 434.538 68.9395 433.881 70.0227 433.433C71.1058 432.985 72.2667 432.754 73.4391 432.754H239.319C240.491 432.754 241.652 432.985 242.735 433.433C243.818 433.881 244.803 434.538 245.632 435.366C246.461 436.194 247.118 437.177 247.567 438.259C248.016 439.341 248.247 440.501 248.247 441.672C248.247 442.843 248.016 444.003 247.567 445.085C247.118 446.167 246.461 447.15 245.632 447.978C244.803 448.807 243.818 449.463 242.735 449.912C241.652 450.36 240.491 450.591 239.319 450.591ZM73.4391 434.4C72.4831 434.4 71.5365 434.588 70.6533 434.954C69.7701 435.319 68.9676 435.855 68.2916 436.53C67.6156 437.205 67.0794 438.007 66.7135 438.889C66.3477 439.772 66.1594 440.717 66.1594 441.672C66.1594 442.627 66.3477 443.573 66.7135 444.455C67.0794 445.337 67.6156 446.139 68.2916 446.814C68.9676 447.49 69.7701 448.025 70.6533 448.391C71.5365 448.756 72.4831 448.944 73.4391 448.944H239.319C240.275 448.944 241.221 448.756 242.105 448.391C242.988 448.025 243.79 447.49 244.466 446.814C245.142 446.139 245.679 445.337 246.044 444.455C246.41 443.573 246.599 442.627 246.599 441.672C246.599 440.717 246.41 439.772 246.044 438.889C245.679 438.007 245.142 437.205 244.466 436.53C243.79 435.855 242.988 435.319 242.105 434.954C241.221 434.588 240.275 434.4 239.319 434.4H73.4391Z" fill="#292A2E"/>
<path d="M330.364 433.577H164.483C160.008 433.577 156.379 437.201 156.379 441.672V441.673C156.379 446.144 160.008 449.768 164.483 449.768H330.364C334.839 449.768 338.467 446.144 338.467 441.673V441.672C338.467 437.201 334.839 433.577 330.364 433.577Z" fill="white"/>
<path d="M330.364 450.591H164.483C163.311 450.591 162.15 450.36 161.067 449.912C159.983 449.463 158.999 448.807 158.17 447.978C157.341 447.15 156.684 446.167 156.235 445.085C155.786 444.003 155.555 442.843 155.555 441.672C155.555 440.501 155.786 439.341 156.235 438.259C156.684 437.177 157.341 436.194 158.17 435.366C158.999 434.538 159.983 433.881 161.067 433.433C162.15 432.985 163.311 432.754 164.483 432.754H330.364C331.536 432.754 332.697 432.985 333.78 433.433C334.863 433.881 335.847 434.538 336.676 435.366C337.505 436.194 338.163 437.177 338.612 438.259C339.06 439.341 339.291 440.501 339.291 441.672C339.291 442.843 339.06 444.003 338.612 445.085C338.163 446.167 337.505 447.15 336.676 447.978C335.847 448.807 334.863 449.463 333.78 449.912C332.697 450.36 331.536 450.591 330.364 450.591ZM164.483 434.4C163.527 434.4 162.58 434.588 161.697 434.954C160.814 435.319 160.012 435.855 159.336 436.53C158.66 437.205 158.123 438.007 157.757 438.889C157.392 439.772 157.203 440.717 157.203 441.672C157.203 442.627 157.392 443.573 157.757 444.455C158.123 445.337 158.66 446.139 159.336 446.814C160.012 447.49 160.814 448.025 161.697 448.391C162.58 448.756 163.527 448.944 164.483 448.944H330.364C331.32 448.944 332.266 448.756 333.149 448.391C334.033 448.025 334.835 447.49 335.511 446.814C336.187 446.139 336.723 445.337 337.089 444.455C337.455 443.573 337.643 442.627 337.643 441.672C337.643 440.717 337.455 439.772 337.089 438.889C336.723 438.007 336.187 437.205 335.511 436.53C334.835 435.855 334.033 435.319 333.149 434.954C332.266 434.588 331.32 434.4 330.364 434.4H164.483Z" fill="#292A2E"/>
<path d="M215.599 331.127H54.7219C52.0916 331.126 49.5512 330.17 47.5748 328.436C45.5985 326.702 44.3213 324.309 43.9815 321.704L33.34 240.069C33.1411 238.543 33.2704 236.993 33.7193 235.52C34.1681 234.048 34.9262 232.689 35.9429 231.532C36.9596 230.376 38.2115 229.45 39.615 228.815C41.0186 228.181 42.5415 227.853 44.0821 227.853H204.957C207.587 227.853 210.128 228.809 212.104 230.543C214.08 232.277 215.358 234.67 215.697 237.275L226.338 318.91C226.537 320.436 226.408 321.987 225.959 323.459C225.511 324.931 224.753 326.29 223.736 327.447C222.72 328.603 221.468 329.529 220.065 330.164C218.662 330.798 217.139 331.127 215.599 331.127Z" fill="#292A2E"/>
<path opacity="0.8" d="M215.599 331.127H54.7219C52.0916 331.126 49.5512 330.17 47.5748 328.436C45.5985 326.702 44.3213 324.309 43.9815 321.704L33.34 240.069C33.1411 238.543 33.2704 236.993 33.7193 235.52C34.1681 234.048 34.9262 232.689 35.9429 231.532C36.9596 230.376 38.2115 229.45 39.615 228.815C41.0186 228.181 42.5415 227.853 44.0821 227.853H204.957C207.587 227.853 210.128 228.809 212.104 230.543C214.08 232.277 215.358 234.67 215.697 237.275L226.338 318.91C226.537 320.436 226.408 321.987 225.959 323.459C225.511 324.931 224.753 326.29 223.736 327.447C222.72 328.603 221.468 329.529 220.065 330.164C218.662 330.798 217.139 331.127 215.599 331.127Z" fill="white"/>
<path d="M215.599 331.95H54.722C51.8932 331.943 49.1628 330.912 47.0374 329.047C44.912 327.183 43.5358 324.611 43.1642 321.81L32.5235 240.176C32.3093 238.533 32.4482 236.865 32.9311 235.28C33.4139 233.696 34.2296 232.233 35.3236 230.989C36.4176 229.744 37.7647 228.747 39.2751 228.065C40.7855 227.382 42.4243 227.029 44.0821 227.029H204.957C207.786 227.035 210.516 228.067 212.641 229.931C214.767 231.796 216.143 234.368 216.514 237.169L227.156 318.804C227.37 320.446 227.231 322.115 226.748 323.699C226.265 325.283 225.449 326.746 224.356 327.99C223.262 329.234 221.915 330.231 220.405 330.914C218.895 331.597 217.256 331.95 215.599 331.95ZM44.0821 228.675C42.6589 228.675 41.252 228.979 39.9555 229.565C38.6589 230.151 37.5025 231.007 36.5633 232.075C35.6242 233.144 34.9239 234.4 34.5093 235.76C34.0948 237.12 33.9753 238.553 34.1591 239.962L44.8006 321.598C45.1194 324.003 46.3008 326.211 48.1257 327.812C49.9505 329.413 52.2949 330.298 54.7236 330.303H215.599C217.022 330.303 218.428 330 219.724 329.413C221.021 328.827 222.177 327.971 223.116 326.902C224.055 325.834 224.755 324.578 225.169 323.218C225.583 321.858 225.703 320.426 225.519 319.016L214.88 237.382C214.561 234.977 213.38 232.769 211.555 231.168C209.73 229.567 207.386 228.682 204.957 228.676L44.0821 228.675Z" fill="#292A2E"/>
<path d="M224.695 331.127H63.8185C61.1883 331.126 58.648 330.17 56.6718 328.436C54.6956 326.702 53.4185 324.309 53.0789 321.704L42.4341 240.069C42.2353 238.544 42.3645 236.993 42.8133 235.521C43.262 234.049 44.02 232.689 45.0365 231.533C46.053 230.377 47.3047 229.45 48.708 228.816C50.1114 228.181 51.6341 227.853 53.1745 227.853H214.054C216.685 227.853 219.225 228.809 221.201 230.543C223.177 232.277 224.454 234.67 224.794 237.275L235.436 318.91C235.634 320.436 235.505 321.987 235.056 323.459C234.608 324.931 233.85 326.29 232.833 327.447C231.817 328.603 230.565 329.529 229.162 330.164C227.758 330.798 226.236 331.127 224.695 331.127Z" fill="white"/>
<path d="M224.695 331.95H63.8185C60.9899 331.943 58.2596 330.912 56.1343 329.047C54.009 327.183 52.633 324.611 52.2616 321.81L41.6201 240.176C41.4061 238.534 41.5452 236.865 42.0281 235.281C42.5111 233.697 43.3267 232.234 44.4205 230.989C45.5144 229.745 46.8613 228.748 48.3715 228.065C49.8816 227.382 51.5202 227.029 53.1779 227.029H214.054C216.882 227.036 219.613 228.067 221.738 229.931C223.864 231.796 225.24 234.368 225.611 237.169L236.253 318.804C236.467 320.446 236.328 322.115 235.845 323.699C235.362 325.283 234.546 326.746 233.452 327.99C232.358 329.234 231.011 330.231 229.501 330.913C227.991 331.596 226.353 331.95 224.695 331.95ZM53.1779 228.675C51.7549 228.676 50.3484 228.98 49.0522 229.566C47.7561 230.153 46.6 231.009 45.6613 232.077C44.7225 233.145 44.0225 234.401 43.6082 235.761C43.1938 237.121 43.0744 238.554 43.2581 239.963L53.8955 321.598C54.2146 324.003 55.3962 326.21 57.221 327.811C59.0457 329.412 61.3899 330.298 63.8185 330.303H224.695C226.118 330.303 227.525 330 228.822 329.414C230.118 328.827 231.275 327.972 232.214 326.903C233.153 325.835 233.853 324.579 234.268 323.219C234.683 321.859 234.802 320.426 234.618 319.016L223.977 237.382C223.658 234.977 222.476 232.769 220.652 231.168C218.827 229.567 216.482 228.681 214.054 228.676L53.1779 228.675Z" fill="#292A2E"/>
<path d="M349.749 349.766L348.11 349.931L382.846 693.451L384.485 693.286L349.749 349.766Z" fill="#494949"/>
<path d="M207.358 102.528C207.358 102.528 218.048 94.4672 220.697 75.9129C222.748 61.5473 209.482 70.8541 209.482 70.8541C209.482 70.8541 210.858 60.4954 203.303 61.5234C195.747 62.5515 191.52 73.4329 191.52 73.4329" fill="#0C0C0C"/>
<path d="M164.256 62.7359C164.256 62.7359 126.77 66.7534 140.321 117.493L143.639 117.715L150.372 118.166" fill="#0C0C0C"/>
<path d="M201.08 170.485C200.915 170.464 199.086 200.775 163.831 198.136C139.426 196.309 130.724 170.443 130.164 170.443C132.796 169.885 136.047 169.036 137.34 168.745C140.157 168.092 142.707 166.598 144.653 164.461C146.598 162.325 147.847 159.647 148.231 156.784C148.946 152.488 147.737 130.504 148.107 126.157L185.57 134.509C185.047 143.692 181.383 164.978 194.222 168.745C196.362 169.368 198.663 169.941 201.08 170.485Z" fill="#E98862"/>
<path opacity="0.52" d="M186.097 160.046C185.51 158.157 185.132 156.209 184.969 154.237C184.558 149.739 184.641 145.209 185.217 140.728C177.602 139.701 170.429 136.562 164.511 131.666C163.816 134.233 159.99 145.447 161.051 147.886C163.049 152.497 172.456 160.046 186.097 160.046Z" fill="#0C0C0C"/>
<path d="M178.365 154.046C163.584 152.722 145.895 143.394 145.64 123.352L145.409 105.269C145.155 85.2279 155.485 68.8474 174.375 68.607C193.264 68.3675 207.591 84.4344 207.845 104.476L207.947 112.482C207.934 115.231 207.734 117.976 207.347 120.699C206.378 127.901 204.875 138.85 199.983 146.257C195.362 153.251 187.806 154.892 178.365 154.046Z" fill="#E98862"/>
<path d="M185.222 135.729C188.272 135.867 191.311 135.287 194.096 134.036C194.153 134.012 194.205 133.976 194.249 133.931C194.293 133.887 194.328 133.834 194.351 133.776C194.374 133.718 194.386 133.656 194.385 133.593C194.385 133.531 194.372 133.469 194.347 133.411C194.322 133.354 194.287 133.302 194.242 133.258C194.197 133.214 194.144 133.18 194.086 133.156C194.028 133.133 193.966 133.121 193.904 133.122C193.841 133.123 193.779 133.136 193.722 133.16C187.723 135.716 182.276 135.342 177.97 132.078C177.883 132.009 177.793 131.945 177.699 131.886C177.591 131.836 177.467 131.828 177.354 131.864C177.24 131.9 177.144 131.978 177.085 132.081C177.025 132.184 177.007 132.306 177.033 132.422C177.059 132.539 177.127 132.641 177.225 132.709C177.26 132.731 177.315 132.774 177.39 132.834C179.654 134.556 182.381 135.564 185.222 135.729Z" fill="#0C0C0C"/>
<path d="M185.079 140.242C185.63 140.276 186.183 140.263 186.732 140.203C186.858 140.189 186.973 140.127 187.052 140.029C187.132 139.93 187.169 139.805 187.155 139.679C187.142 139.554 187.079 139.439 186.981 139.359C186.883 139.28 186.757 139.243 186.631 139.256C183.33 139.607 181.754 138.096 181.688 138.031C181.598 137.941 181.477 137.891 181.351 137.891C181.224 137.891 181.103 137.941 181.014 138.03C180.924 138.119 180.874 138.24 180.874 138.366C180.874 138.493 180.924 138.614 181.013 138.703C182.15 139.67 183.586 140.214 185.079 140.242Z" fill="#0C0C0C"/>
<path d="M201.607 116.335C202.892 116.335 203.934 115.295 203.934 114.011C203.934 112.727 202.892 111.686 201.607 111.686C200.322 111.686 199.28 112.727 199.28 114.011C199.28 115.295 200.322 116.335 201.607 116.335Z" fill="#0C0C0C"/>
<path d="M178.875 114.911C180.161 114.911 181.202 113.87 181.202 112.586C181.202 111.302 180.161 110.262 178.875 110.262C177.59 110.262 176.549 111.302 176.549 112.586C176.549 113.87 177.59 114.911 178.875 114.911Z" fill="#0C0C0C"/>
<path d="M146.891 129.443C141.15 129.516 136.419 123.44 136.344 117.706C136.269 111.971 140.884 108.75 146.625 108.677L149.631 112.482L151.825 129.381L146.891 129.443Z" fill="#E98862"/>
<path d="M152.598 120.229C152.598 120.229 154.537 91.8703 163.145 90.1187C168.878 88.9524 182.781 97.0764 195.658 94.6227C201.292 93.5527 206.641 94.9421 207.184 97.6007C207.399 98.6535 210.91 83.5257 202.087 72.0484C195.063 62.9079 172.076 60.3275 161.618 63.3235C132.662 71.622 145.44 109.925 145.44 109.925L146.731 119.702L152.598 120.229Z" fill="#0C0C0C"/>
<path d="M188.688 129.035H188.725C190.575 129.016 193.675 128.779 193.663 127.396C193.651 126.25 190.388 113.918 190.015 112.515C189.979 112.399 189.899 112.301 189.793 112.242C189.686 112.182 189.561 112.167 189.443 112.198C189.325 112.229 189.224 112.305 189.161 112.409C189.098 112.513 189.077 112.638 189.104 112.756C190.553 118.219 192.712 126.627 192.721 127.408C192.543 127.737 190.632 128.076 188.716 128.096C188.595 128.098 188.48 128.147 188.394 128.232C188.308 128.317 188.259 128.432 188.255 128.552C188.251 128.673 188.294 128.791 188.375 128.88C188.455 128.97 188.568 129.026 188.688 129.036V129.035Z" fill="#0C0C0C"/>
<path d="M195.003 101.406C196.947 100.871 199 100.871 200.944 101.406C201.899 101.662 202.81 102.061 203.646 102.588C204.473 103.104 205.231 103.722 205.903 104.428C206.032 104.553 206.107 104.723 206.111 104.902C206.116 105.081 206.051 105.254 205.929 105.386C205.807 105.517 205.639 105.595 205.46 105.604C205.281 105.613 205.105 105.551 204.971 105.433L204.929 105.396C204.307 104.821 203.615 104.326 202.869 103.924C202.138 103.523 201.349 103.236 200.532 103.071C198.922 102.734 197.251 102.827 195.689 103.342L195.623 103.365C195.366 103.456 195.082 103.441 194.835 103.323C194.589 103.206 194.399 102.995 194.308 102.737C194.217 102.48 194.232 102.197 194.35 101.95C194.467 101.704 194.678 101.514 194.936 101.423L195.003 101.406Z" fill="#0C0C0C"/>
<path d="M181.236 102.574C179.757 101.856 178.114 101.541 176.474 101.661C175.641 101.715 174.821 101.895 174.043 102.194C173.251 102.495 172.501 102.893 171.808 103.38L171.764 103.409C171.615 103.505 171.436 103.539 171.262 103.505C171.089 103.471 170.935 103.372 170.833 103.228C170.731 103.085 170.689 102.907 170.714 102.732C170.74 102.558 170.832 102.4 170.971 102.292C171.731 101.681 172.565 101.169 173.454 100.767C174.353 100.357 175.309 100.083 176.29 99.9556C178.288 99.6834 180.323 99.9559 182.179 100.744C182.43 100.853 182.628 101.058 182.728 101.312C182.829 101.567 182.824 101.851 182.714 102.102C182.605 102.353 182.4 102.551 182.145 102.651C181.89 102.751 181.606 102.746 181.355 102.637L181.298 102.61L181.236 102.574Z" fill="#0C0C0C"/>
<path d="M192.236 81.8853C196.485 80.9985 198.87 75.215 197.564 68.9675C196.257 62.72 191.753 58.3744 187.504 59.2612C183.255 60.148 180.87 65.9315 182.176 72.179C183.483 78.4265 187.987 82.7722 192.236 81.8853Z" fill="#0C0C0C"/>
<path d="M429.22 650.034C429.22 650.034 433.639 672.911 455.08 674.186C476.521 675.461 471.872 692.524 471.872 692.524H389.934V651.629L429.22 650.034Z" fill="#367CFF"/>
<path d="M273.336 635.59C273.336 635.59 267.192 658.066 285.869 668.664C304.546 679.262 292.833 692.524 292.833 692.524L219.309 656.39L237.379 619.695L273.336 635.59Z" fill="#367CFF"/>
<path d="M227.798 629.242L289.801 433.846H177.412C154.835 433.846 145.424 414.721 145.424 392.17C145.424 369.619 167.618 349.85 190.193 349.85H341.877C355.646 349.85 371.086 358.262 378.643 369.76C386.2 381.259 384.157 399.077 378.682 411.698L279.394 652.592" fill="#262626"/>
<path opacity="0.8" d="M227.798 629.242L289.801 433.846H177.412C154.835 433.846 145.424 414.721 145.424 392.17C145.424 369.619 167.618 349.85 190.193 349.85H341.877C355.646 349.85 371.086 358.262 378.643 369.76C386.2 381.259 384.157 399.077 378.682 411.698L279.394 652.592" fill="#0A0A0A"/>
<path d="M385.222 671.279L281.549 433.846L145.422 433.837C113.526 431.339 98.9178 413.877 99.3826 391.331C99.8407 369.07 111.124 347.082 133.308 347.082H316.782C333.195 347.419 346.108 365.539 352.197 380.768L438.384 656.743" fill="#262626"/>
<path d="M90.0981 347.355C90.0981 347.355 84.0526 386.737 93.6354 408.632C105.598 435.967 150.445 433.837 150.445 433.837L147.918 347.082L90.0981 347.355Z" fill="#262626"/>
<path d="M356.098 346.58L259.941 326.676C255.934 325.847 252.202 324.021 249.089 321.368C245.975 318.716 243.582 315.321 242.13 311.5L204.31 211.943C203.159 208.955 202.609 205.77 202.694 202.569C202.779 199.369 203.495 196.216 204.803 193.293C206.111 190.37 207.984 187.734 210.314 185.536C212.645 183.338 215.387 181.622 218.384 180.486C221.38 179.35 224.572 178.817 227.775 178.917C230.979 179.017 234.131 179.748 237.051 181.068C239.971 182.388 242.6 184.272 244.789 186.611C246.978 188.95 248.683 191.697 249.806 194.696L282.889 281.78L365.974 298.978C365.974 298.978 357.766 346.925 356.098 346.58Z" fill="#367CFF"/>
<path d="M244.882 237.225C243.772 250.257 235.901 331.56 234.83 347.612H90.1616C89.3302 333.135 86.6317 271.668 83.4792 243.358C80.4709 216.342 79.3792 200.925 82.8448 192.531C88.9569 177.723 104.252 172.395 117.427 170.613C125.472 169.526 137.572 168.745 137.572 168.745C137.572 168.745 138.597 189.449 163.026 190.601C196.28 192.165 194.059 168.745 194.224 168.745C199.611 168.745 228.936 172.659 236.269 177.433C246.626 184.177 249.686 193.366 249.807 201.809C249.946 211.53 246.141 222.445 244.882 237.225Z" fill="#367CFF"/>
<path d="M239.197 303.659H239.162C239.108 303.654 239.056 303.639 239.008 303.615C238.96 303.59 238.917 303.556 238.882 303.515C238.847 303.473 238.82 303.426 238.804 303.374C238.788 303.323 238.781 303.268 238.786 303.214L242.542 258.146C242.545 258.092 242.559 258.039 242.583 257.99C242.607 257.941 242.641 257.898 242.683 257.863C242.724 257.828 242.772 257.801 242.825 257.785C242.877 257.77 242.931 257.764 242.986 257.77C243.04 257.775 243.092 257.79 243.14 257.815C243.188 257.839 243.231 257.873 243.266 257.915C243.301 257.956 243.328 258.004 243.344 258.055C243.361 258.107 243.367 258.161 243.362 258.215L239.607 303.283C239.598 303.385 239.551 303.481 239.475 303.55C239.399 303.62 239.3 303.659 239.197 303.659Z" fill="#0C0C0C"/>
<path d="M308.096 330.708L339.838 233.233C340.396 231.52 341.482 230.027 342.941 228.969C344.4 227.91 346.157 227.34 347.96 227.34H485.523C486.871 227.34 488.2 227.659 489.401 228.27C490.602 228.882 491.641 229.769 492.434 230.858C493.226 231.948 493.749 233.209 493.959 234.54C494.17 235.87 494.062 237.231 493.645 238.511L453.663 335.989C453.105 337.702 452.019 339.195 450.56 340.253C449.101 341.312 447.344 341.882 445.541 341.882H316.218C314.869 341.882 313.54 341.564 312.339 340.952C311.137 340.34 310.098 339.453 309.305 338.363C308.513 337.273 307.99 336.011 307.78 334.68C307.57 333.35 307.678 331.988 308.096 330.708Z" fill="#292A2E"/>
<path d="M308.096 330.708L339.838 233.233C340.396 231.52 341.482 230.027 342.941 228.969C344.4 227.91 346.157 227.34 347.96 227.34H485.523C486.871 227.34 488.2 227.659 489.401 228.27C490.602 228.882 491.641 229.769 492.434 230.858C493.226 231.948 493.749 233.209 493.959 234.54C494.17 235.87 494.062 237.231 493.645 238.511L453.663 335.989C453.105 337.702 452.019 339.195 450.56 340.253C449.101 341.312 447.344 341.882 445.541 341.882H316.218C314.869 341.882 313.54 341.564 312.339 340.952C311.137 340.34 310.098 339.453 309.305 338.363C308.513 337.273 307.99 336.011 307.78 334.68C307.57 333.35 307.678 331.988 308.096 330.708Z" fill="#292A2E"/>
<path d="M333.99 333.975H247.421C245.264 333.975 243.515 335.721 243.515 337.876V337.976C243.515 340.131 245.264 341.878 247.421 341.878H333.99C336.147 341.878 337.896 340.131 337.896 337.976V337.876C337.896 335.721 336.147 333.975 333.99 333.975Z" fill="#292A2E"/>
<path d="M333.99 333.975H247.421C245.264 333.975 243.515 335.721 243.515 337.876V337.976C243.515 340.131 245.264 341.878 247.421 341.878H333.99C336.147 341.878 337.896 340.131 337.896 337.976V337.876C337.896 335.721 336.147 333.975 333.99 333.975Z" fill="#292A2E"/>
<path d="M396.751 302.914C404.241 302.914 410.314 296.848 410.314 289.365C410.314 281.882 404.241 275.816 396.751 275.816C389.26 275.816 383.187 281.882 383.187 289.365C383.187 296.848 389.26 302.914 396.751 302.914Z" fill="white"/>
<path d="M300.86 307.874L279.255 300.309L282.356 300.095C283.356 300.006 284.285 299.541 284.955 298.794C285.625 298.047 285.986 297.074 285.965 296.072C285.937 295.555 285.803 295.049 285.572 294.585C285.341 294.122 285.018 293.71 284.623 293.375C284.227 293.04 283.768 292.789 283.272 292.638C282.777 292.486 282.255 292.437 281.74 292.494L243.515 296.551L244.504 308.822C244.813 312.633 246.253 316.266 248.642 319.253C251.03 322.241 254.258 324.448 257.91 325.592L274.464 330.743C275.318 331.027 276.245 331.008 277.088 330.688C277.93 330.368 278.635 329.767 279.085 328.987C279.476 328.274 279.629 327.455 279.521 326.65C279.413 325.844 279.05 325.094 278.485 324.509C278.522 324.483 278.553 324.45 278.576 324.411C278.599 324.373 278.615 324.331 278.621 324.286C278.627 324.242 278.624 324.197 278.612 324.153C278.601 324.11 278.58 324.07 278.552 324.035L281.601 324.99C282.552 325.31 283.59 325.256 284.503 324.84C285.417 324.425 286.138 323.678 286.521 322.752C286.835 321.911 286.842 320.987 286.54 320.142C286.239 319.297 285.648 318.586 284.873 318.133C284.909 318.114 284.941 318.088 284.967 318.057L286.221 318.45C287.076 318.735 288.004 318.715 288.846 318.395C289.688 318.075 290.394 317.474 290.843 316.693C291.317 315.829 291.437 314.815 291.179 313.864C290.921 312.912 290.305 312.098 289.459 311.59C289.466 311.565 289.47 311.539 289.47 311.513L298.468 314.663C298.915 314.825 299.39 314.896 299.866 314.873C300.341 314.85 300.807 314.734 301.236 314.53C301.666 314.326 302.051 314.039 302.369 313.686C302.687 313.333 302.932 312.92 303.089 312.471C303.247 312.023 303.313 311.548 303.286 311.073C303.258 310.599 303.137 310.135 302.928 309.707C302.72 309.28 302.429 308.898 302.072 308.584C301.715 308.27 301.299 308.03 300.848 307.877L300.86 307.874Z" fill="#E98862"/>
<path opacity="0.2" d="M289.129 311.861C289.087 311.861 289.046 311.853 289.006 311.84L280.304 308.678C280.214 308.645 280.142 308.579 280.102 308.492C280.062 308.406 280.058 308.307 280.09 308.218C280.123 308.129 280.19 308.056 280.276 308.016C280.363 307.976 280.462 307.972 280.551 308.005L289.254 311.166C289.334 311.195 289.4 311.251 289.443 311.324C289.485 311.397 289.5 311.482 289.485 311.565C289.471 311.648 289.427 311.723 289.362 311.778C289.298 311.832 289.216 311.861 289.132 311.861H289.129Z" fill="#0A0A0A"/>
<path opacity="0.2" d="M284.728 318.182C284.687 318.182 284.647 318.175 284.608 318.161L277.749 315.73C277.703 315.715 277.661 315.691 277.625 315.66C277.589 315.628 277.56 315.59 277.539 315.547C277.518 315.505 277.505 315.458 277.503 315.41C277.5 315.363 277.507 315.315 277.522 315.27C277.538 315.225 277.563 315.184 277.595 315.148C277.627 315.113 277.666 315.085 277.71 315.065C277.753 315.045 277.8 315.033 277.848 315.032C277.895 315.03 277.943 315.038 277.988 315.055L284.848 317.486C284.928 317.514 284.995 317.57 285.037 317.643C285.08 317.715 285.096 317.801 285.081 317.884C285.067 317.967 285.024 318.043 284.959 318.097C284.895 318.152 284.813 318.182 284.728 318.182Z" fill="#0A0A0A"/>
<path opacity="0.2" d="M278.269 324.596C278.225 324.596 278.182 324.588 278.141 324.572L274.927 323.348C274.839 323.314 274.767 323.247 274.728 323.16C274.689 323.073 274.687 322.974 274.721 322.886C274.755 322.797 274.822 322.725 274.909 322.687C274.996 322.648 275.095 322.645 275.184 322.679L278.397 323.903C278.476 323.933 278.541 323.989 278.583 324.062C278.624 324.135 278.638 324.22 278.623 324.303C278.608 324.385 278.564 324.46 278.499 324.514C278.435 324.567 278.353 324.596 278.269 324.596H278.269Z" fill="#0A0A0A"/>
<path d="M260.434 289.289L169.798 289.228L135.509 205.674L84.3593 227.157L127.138 326.323L127.556 327.311C129.649 332.131 133.174 336.192 137.654 338.944C142.135 341.695 147.354 343.005 152.604 342.695L261.803 336.251L260.434 289.289Z" fill="#367CFF"/>
<path d="M151.104 343.15C146.023 343.142 141.054 341.654 136.805 338.87C132.557 336.086 129.212 332.126 127.18 327.474L126.761 326.486L90.3066 241.991L91.063 241.662L127.935 327.15C130.005 331.885 133.475 335.874 137.881 338.579C142.287 341.285 147.417 342.578 152.58 342.285L261.379 335.864L260.031 289.702L169.52 289.642L143.153 225.396L143.916 225.085L170.071 288.818L260.831 288.88L262.226 336.639L261.826 336.663L152.631 343.105C152.121 343.136 151.61 343.15 151.104 343.15Z" fill="#0C0C0C"/>
<path d="M50.291 349.771L15.5309 693.288L17.1705 693.454L51.9306 349.936L50.291 349.771Z" fill="#494949"/>
<path d="M193.907 349.77L159.146 693.288L160.786 693.454L195.546 349.936L193.907 349.77Z" fill="#494949"/>
<path d="M493.364 349.766L491.725 349.931L526.461 693.451L528.1 693.286L493.364 349.766Z" fill="#494949"/>
<path d="M524.688 343.105H21.2427C17.5139 343.105 14.4911 346.125 14.4911 349.849C14.4911 353.574 17.5139 356.593 21.2427 356.593H524.688C528.416 356.593 531.439 353.574 531.439 349.849C531.439 346.125 528.416 343.105 524.688 343.105Z" fill="#292A2E"/>
<path opacity="0.8" d="M524.688 343.105H21.2427C17.5139 343.105 14.4911 346.125 14.4911 349.849C14.4911 353.574 17.5139 356.593 21.2427 356.593H524.688C528.416 356.593 531.439 353.574 531.439 349.849C531.439 346.125 528.416 343.105 524.688 343.105Z" fill="white"/>
<path d="M524.688 357.416H21.246C20.2445 357.427 19.251 357.239 18.3228 356.863C17.3945 356.488 16.5501 355.932 15.8383 355.228C15.1264 354.524 14.5613 353.687 14.1757 352.763C13.79 351.84 13.5914 350.85 13.5914 349.849C13.5914 348.849 13.79 347.858 14.1757 346.935C14.5613 346.012 15.1264 345.174 15.8383 344.47C16.5501 343.767 17.3945 343.211 18.3228 342.835C19.251 342.46 20.2445 342.272 21.246 342.282H524.688C525.69 342.272 526.683 342.46 527.612 342.835C528.54 343.211 529.384 343.767 530.096 344.47C530.808 345.174 531.373 346.012 531.759 346.935C532.144 347.858 532.343 348.849 532.343 349.849C532.343 350.85 532.144 351.84 531.759 352.763C531.373 353.687 530.808 354.524 530.096 355.228C529.384 355.932 528.54 356.488 527.612 356.863C526.683 357.239 525.69 357.427 524.688 357.416ZM21.246 343.928C20.4617 343.919 19.6834 344.065 18.9562 344.359C18.229 344.652 17.5673 345.087 17.0094 345.638C16.4516 346.188 16.0087 346.844 15.7064 347.567C15.4041 348.29 15.2485 349.066 15.2485 349.849C15.2485 350.633 15.4041 351.408 15.7064 352.131C16.0087 352.854 16.4516 353.51 17.0094 354.061C17.5673 354.612 18.229 355.046 18.9562 355.34C19.6834 355.633 20.4617 355.779 21.246 355.77H524.688C525.473 355.779 526.251 355.633 526.978 355.34C527.705 355.046 528.367 354.612 528.925 354.061C529.483 353.51 529.926 352.854 530.228 352.131C530.53 351.408 530.686 350.633 530.686 349.849C530.686 349.066 530.53 348.29 530.228 347.567C529.926 346.844 529.483 346.188 528.925 345.638C528.367 345.087 527.705 344.652 526.978 344.359C526.251 344.065 525.473 343.919 524.688 343.928H21.246Z" fill="#292A2E"/>
<path d="M524.688 343.105H170.348C166.619 343.105 163.597 346.125 163.597 349.849C163.597 353.574 166.619 356.593 170.348 356.593H524.688C528.416 356.593 531.439 353.574 531.439 349.849C531.439 346.125 528.416 343.105 524.688 343.105Z" fill="white"/>
<path d="M524.688 357.416H170.348C168.353 357.396 166.446 356.589 165.043 355.172C163.639 353.755 162.852 351.843 162.852 349.849C162.852 347.856 163.639 345.943 165.043 344.526C166.446 343.109 168.353 342.303 170.348 342.282H524.688C525.69 342.272 526.683 342.46 527.612 342.835C528.54 343.211 529.384 343.767 530.096 344.47C530.808 345.174 531.373 346.012 531.759 346.935C532.144 347.858 532.343 348.849 532.343 349.849C532.343 350.85 532.144 351.84 531.759 352.763C531.373 353.687 530.808 354.524 530.096 355.228C529.384 355.932 528.54 356.488 527.612 356.863C526.683 357.239 525.69 357.427 524.688 357.416ZM170.348 343.928C168.788 343.947 167.298 344.579 166.202 345.687C165.105 346.795 164.49 348.291 164.49 349.849C164.49 351.408 165.105 352.903 166.202 354.012C167.298 355.12 168.788 355.752 170.348 355.77H524.688C525.473 355.779 526.251 355.633 526.978 355.34C527.705 355.046 528.367 354.612 528.925 354.061C529.483 353.51 529.926 352.854 530.228 352.131C530.53 351.408 530.686 350.633 530.686 349.849C530.686 349.066 530.53 348.29 530.228 347.567C529.926 346.844 529.483 346.188 528.925 345.638C528.367 345.087 527.705 344.652 526.978 344.359C526.251 344.065 525.473 343.919 524.688 343.928H170.348Z" fill="#292A2E"/>
<path d="M538.267 583.94C538.159 583.94 538.052 583.919 537.952 583.878C537.852 583.836 537.761 583.776 537.685 583.699C536.524 582.54 534.631 561.263 529.534 497.913C527.449 471.992 525.479 447.508 524.041 432.629C523.939 431.566 523.526 431.443 523.391 431.402C521.422 430.809 515.438 435.523 512.097 439.652C511.959 439.821 511.76 439.93 511.542 439.953C511.325 439.976 511.107 439.911 510.937 439.774C510.767 439.637 510.659 439.438 510.636 439.221C510.613 439.003 510.677 438.786 510.815 438.616C513.024 435.887 520.226 428.731 523.864 429.825C524.598 430.046 525.512 430.683 525.681 432.471C527.121 447.363 529.091 471.854 531.177 497.781C534.274 536.278 537.783 579.89 538.936 582.637C539.025 582.76 539.077 582.905 539.089 583.056C539.1 583.207 539.069 583.358 539 583.493C538.931 583.627 538.826 583.74 538.697 583.819C538.567 583.898 538.419 583.94 538.267 583.94Z" fill="#494949"/>
<path d="M521.924 459.932C535.597 448.984 540.128 431.943 532.046 421.871C523.963 411.798 506.327 412.508 492.654 423.456C478.982 434.404 474.45 451.445 482.532 461.518C490.615 471.59 508.251 470.881 521.924 459.932Z" fill="#0CBC8B"/>
<path opacity="0.2" d="M521.924 459.932C535.597 448.984 540.128 431.943 532.046 421.871C523.963 411.798 506.327 412.508 492.654 423.456C478.982 434.404 474.45 451.445 482.532 461.518C490.615 471.59 508.251 470.881 521.924 459.932Z" fill="white"/>
<path d="M486.366 464.079C486.288 464.079 486.211 464.057 486.145 464.015C486.079 463.973 486.026 463.914 485.993 463.843C485.96 463.772 485.947 463.694 485.957 463.616C485.967 463.539 485.999 463.466 486.049 463.405L525.015 416.465C525.085 416.381 525.185 416.328 525.294 416.318C525.403 416.308 525.511 416.341 525.595 416.411C525.679 416.481 525.732 416.581 525.742 416.69C525.753 416.798 525.719 416.907 525.649 416.991L486.683 463.931C486.644 463.978 486.596 464.015 486.541 464.041C486.486 464.066 486.426 464.08 486.366 464.079Z" fill="white"/>
<path d="M546.766 573.878C546.634 573.878 546.505 573.846 546.388 573.786C546.271 573.726 546.17 573.638 546.094 573.531C546.018 573.424 545.969 573.3 545.95 573.17C545.932 573.04 545.945 572.908 545.988 572.784L560.626 530.735C561.057 529.5 561.791 528.392 562.761 527.513C563.732 526.635 564.908 526.014 566.181 525.707C567.454 525.4 568.784 525.417 570.048 525.756C571.313 526.096 572.472 526.747 573.42 527.65L581.159 535.034C581.317 535.185 581.409 535.392 581.414 535.611C581.419 535.829 581.337 536.04 581.186 536.198C581.035 536.356 580.827 536.448 580.608 536.453C580.39 536.458 580.178 536.376 580.02 536.225L572.282 528.84C571.534 528.127 570.619 527.613 569.62 527.345C568.622 527.077 567.572 527.064 566.567 527.306C565.562 527.549 564.634 528.039 563.867 528.732C563.101 529.426 562.522 530.3 562.181 531.276L547.545 573.325C547.489 573.487 547.383 573.627 547.244 573.726C547.104 573.825 546.937 573.878 546.766 573.878Z" fill="#494949"/>
<path d="M602.777 558.315C612.909 550.302 612.307 532.681 601.432 518.955C590.556 505.23 573.526 500.599 563.393 508.611C553.26 516.623 553.862 534.244 564.738 547.97C575.613 561.695 592.644 566.327 602.777 558.315Z" fill="#0CBC8B"/>
<path d="M531.622 581.258C531.437 581.258 531.257 581.196 531.112 581.082C530.967 580.967 530.864 580.807 530.821 580.627L506.254 478.032C506.086 477.333 505.728 476.693 505.22 476.184C504.712 475.675 504.073 475.316 503.374 475.145C502.674 474.975 501.942 475.001 501.256 475.22C500.57 475.439 499.958 475.842 499.487 476.386L491.915 485.127C491.845 485.21 491.758 485.278 491.661 485.327C491.564 485.377 491.459 485.407 491.35 485.415C491.242 485.423 491.132 485.41 491.029 485.376C490.926 485.342 490.83 485.288 490.748 485.217C490.665 485.145 490.598 485.059 490.549 484.961C490.501 484.864 490.472 484.758 490.465 484.649C490.458 484.541 490.472 484.432 490.507 484.329C490.542 484.226 490.597 484.131 490.669 484.05L498.241 475.309C498.91 474.536 499.78 473.963 500.755 473.652C501.73 473.341 502.772 473.304 503.766 473.547C504.76 473.789 505.668 474.301 506.39 475.025C507.112 475.75 507.619 476.659 507.857 477.653L532.42 580.248C532.469 580.459 532.433 580.682 532.319 580.867C532.204 581.052 532.021 581.185 531.81 581.235C531.748 581.25 531.685 581.258 531.622 581.258Z" fill="#494949"/>
<path d="M522.558 507.919C525.544 490.67 517.642 474.904 504.908 472.704C492.174 470.504 479.431 482.704 476.445 499.953C473.459 517.201 481.361 532.967 494.095 535.167C506.829 537.367 519.572 525.167 522.558 507.919Z" fill="#0CBC8B"/>
<path d="M538.268 583.94C538.234 583.94 538.2 583.938 538.167 583.934C538.059 583.921 537.955 583.887 537.861 583.834C537.767 583.781 537.684 583.709 537.618 583.624C537.551 583.539 537.502 583.441 537.473 583.337C537.444 583.233 537.436 583.124 537.449 583.017L553.134 455.801C553.305 454.415 553.873 453.108 554.77 452.037C555.666 450.966 556.854 450.176 558.189 449.763C559.524 449.35 560.95 449.33 562.296 449.707C563.642 450.085 564.85 450.842 565.775 451.889L583.703 472.172C583.848 472.336 583.921 472.55 583.908 472.768C583.894 472.986 583.795 473.19 583.631 473.334C583.467 473.479 583.252 473.552 583.034 473.539C582.816 473.525 582.612 473.426 582.467 473.262L564.539 452.978C563.824 452.169 562.891 451.584 561.851 451.292C560.81 451.001 559.708 451.016 558.676 451.335C557.644 451.654 556.727 452.265 556.034 453.092C555.341 453.92 554.902 454.93 554.77 456.002L539.085 583.217C539.061 583.417 538.964 583.6 538.814 583.733C538.663 583.866 538.469 583.94 538.268 583.94Z" fill="#494949"/>
<path d="M602.091 483.444C608.346 472.148 600.986 456.122 585.653 447.649C570.319 439.176 552.818 441.465 546.563 452.762C540.308 464.058 547.668 480.084 563.001 488.557C578.335 497.03 595.836 494.741 602.091 483.444Z" fill="#0CBC8B"/>
<path opacity="0.2" d="M602.777 558.315C612.909 550.302 612.307 532.681 601.432 518.955C590.556 505.23 573.526 500.599 563.393 508.611C553.26 516.623 553.862 534.244 564.738 547.97C575.613 561.695 592.644 566.327 602.777 558.315Z" fill="white"/>
<path opacity="0.5" d="M522.558 507.919C525.544 490.67 517.642 474.904 504.908 472.704C492.174 470.504 479.431 482.704 476.445 499.953C473.459 517.201 481.361 532.967 494.095 535.167C506.829 537.367 519.572 525.167 522.558 507.919Z" fill="white"/>
<path opacity="0.5" d="M602.091 483.444C608.346 472.148 600.986 456.122 585.653 447.649C570.319 439.176 552.818 441.465 546.563 452.762C540.308 464.058 547.668 480.084 563.001 488.557C578.335 497.03 595.836 494.741 602.091 483.444Z" fill="white"/>
<path d="M558.329 691.883H518.205L511.556 563.641H564.978L558.329 691.883Z" fill="#292A2E"/>
<path opacity="0.3" d="M558.329 691.883H518.205L511.556 563.641H564.978L558.329 691.883Z" fill="white"/>
<path d="M602.778 558.72C602.716 558.72 602.654 558.706 602.598 558.679C602.543 558.652 602.493 558.613 602.455 558.564L563.069 508.86C563.002 508.775 562.97 508.666 562.983 508.557C562.996 508.449 563.051 508.35 563.137 508.282C563.222 508.214 563.331 508.183 563.44 508.196C563.548 508.208 563.648 508.264 563.715 508.349L603.101 558.053C603.149 558.113 603.179 558.186 603.188 558.263C603.196 558.34 603.183 558.418 603.149 558.488C603.116 558.558 603.063 558.616 602.997 558.658C602.931 558.699 602.855 558.72 602.778 558.72Z" fill="white"/>
<path d="M599.471 487.427C599.384 487.426 599.299 487.397 599.228 487.344L548.83 450.583C548.741 450.519 548.682 450.422 548.666 450.314C548.649 450.206 548.675 450.096 548.74 450.008C548.804 449.92 548.901 449.861 549.009 449.844C549.117 449.827 549.228 449.854 549.316 449.918L599.715 486.68C599.784 486.732 599.835 486.804 599.861 486.887C599.886 486.969 599.886 487.058 599.858 487.14C599.831 487.221 599.778 487.293 599.708 487.343C599.638 487.394 599.554 487.421 599.467 487.421L599.471 487.427Z" fill="white"/>
<path d="M492.047 534.631C492.011 534.631 491.975 534.626 491.941 534.616C491.835 534.588 491.746 534.519 491.691 534.425C491.636 534.33 491.621 534.218 491.649 534.113L507.693 474.065C507.723 473.963 507.792 473.876 507.886 473.823C507.979 473.771 508.09 473.757 508.193 473.785C508.297 473.812 508.386 473.879 508.441 473.971C508.496 474.063 508.513 474.173 508.488 474.277L492.445 534.324C492.422 534.412 492.37 534.49 492.298 534.545C492.226 534.601 492.138 534.631 492.047 534.631Z" fill="white"/>
<path d="M577.7 693.039H0.576775C0.423805 693.039 0.2771 692.978 0.168934 692.87C0.0607672 692.762 0 692.615 0 692.463C0 692.31 0.0607672 692.163 0.168934 692.055C0.2771 691.947 0.423805 691.886 0.576775 691.886H577.698C577.851 691.886 577.998 691.947 578.106 692.055C578.214 692.163 578.275 692.31 578.275 692.463C578.275 692.615 578.214 692.762 578.106 692.87C577.998 692.978 577.851 693.039 577.698 693.039H577.7Z" fill="#292A2E"/>
<g opacity="0.65">
<path d="M577.7 693.039H0.576775C0.423805 693.039 0.2771 692.978 0.168934 692.87C0.0607672 692.762 0 692.615 0 692.463C0 692.31 0.0607672 692.163 0.168934 692.055C0.2771 691.947 0.423805 691.886 0.576775 691.886H577.698C577.851 691.886 577.998 691.947 578.106 692.055C578.214 692.163 578.275 692.31 578.275 692.463C578.275 692.615 578.214 692.762 578.106 692.87C577.998 692.978 577.851 693.039 577.698 693.039H577.7Z" fill="#292A2E"/>
</g>
</g>
<defs>
<clipPath id="clip0_6_24">
<rect width="610" height="693.453" fill="white"/>
</clipPath>
</defs>
</svg>
