<svg width="260" height="260" viewBox="0 0 260 260" fill="none" xmlns="http://www.w3.org/2000/svg">
<path d="M36.0547 233.594L15.2344 0H244.258L223.438 233.594L129.492 260" fill="#E34F26"/>
<path d="M130 239.688L205.664 218.867L223.438 18.7891H130" fill="#EF652A"/>
<path d="M130 105.625H91.9141L89.375 76.1719H130V47.7344H57.8906L65.5078 134.57H130V105.625ZM129.492 180.273L97.5 171.641L95.4688 148.789H67.0312L70.5859 193.984L129.492 210.234V180.273Z" fill="#EBEBEB"/>
<path d="M129.492 105.625V134.57H165.039L161.484 171.641L129.492 180.273V210.234L188.398 193.984L196.523 105.625H129.492ZM129.492 47.7344V76.1719H199.062L201.602 47.7344H129.492Z" fill="white"/>
</svg>
