<svg width="260" height="260" viewBox="0 0 260 260" fill="none" xmlns="http://www.w3.org/2000/svg">
<g clip-path="url(#clip0_30_2)">
<path d="M0 260H260V0H0V260Z" fill="#F0D91F"/>
<path d="M130 0H0V260H130V0Z" fill="#D1BD1B"/>
<path d="M214.327 201.814C211.564 191.403 189.941 188.977 175.153 177.927C160.203 167.852 156.639 143.477 168.989 129.491C173.214 124.291 180.191 120.391 187.514 118.603L195.152 117.639C209.939 117.303 219.028 121.203 225.853 128.841C227.825 130.78 229.277 132.741 232.202 137.291C224.391 142.155 224.391 142.155 213.189 149.478C210.741 144.278 206.841 141.028 202.616 139.728C196.116 137.778 187.828 139.88 186.203 146.878C185.564 148.991 185.716 150.941 186.702 154.516C189.334 160.528 198.196 163.128 206.169 166.866C229.082 176.172 236.795 186.127 238.702 197.99L238.203 197.264C240.002 207.502 237.716 214.164 237.402 215.139C228.941 244.064 181.816 245.039 162.966 226.027C159.066 221.477 156.466 219.202 154.191 214.012L174.016 202.627C179.378 210.752 184.243 215.15 193.028 217.1C204.902 218.552 216.927 214.489 214.327 201.814ZM88.1076 205.573C88.2917 205.573 88.8009 206.559 89.4834 207.697C92.0076 211.911 94.1851 214.836 98.4751 216.959C102.657 218.27 111.865 219.223 115.44 211.759C117.607 208 116.924 195.737 116.924 182.39C116.924 161.362 117.022 140.497 117.022 119.502H141.375L141.321 120.109C141.321 142.534 141.451 164.797 141.321 187.048C141.386 200.872 142.545 213.222 137.02 223.297C133.196 231.086 125.883 236.123 117.401 238.582C104.368 241.507 91.9209 239.72 82.6584 234.195C76.4401 230.457 71.6192 224.586 68.3151 217.761L88.1076 205.573Z" fill="black"/>
<path d="M196.885 117.618C196.322 117.618 195.737 117.628 195.152 117.639L187.514 118.603C180.191 120.391 173.214 124.291 168.989 129.491C156.639 143.477 160.203 167.852 175.153 177.927C175.283 178.024 175.424 178.122 175.554 178.23H226.731C221.845 174.287 215.183 170.528 206.169 166.866C198.185 163.128 189.334 160.528 186.702 154.516C185.716 150.941 185.564 148.991 186.203 146.878C187.449 141.527 192.584 139.035 197.849 139.035C199.463 139.035 201.088 139.273 202.616 139.728C206.841 141.028 210.741 144.278 213.189 149.478C224.391 142.155 224.391 142.155 232.202 137.291C229.277 132.741 227.825 130.791 225.853 128.841C219.299 121.507 210.654 117.618 196.885 117.618ZM141.386 119.503H117.033C117.033 139.111 116.946 158.611 116.935 178.23H141.375C141.44 158.914 141.332 139.577 141.332 120.109L141.386 119.503Z" fill="#212121"/>
</g>
<defs>
<clipPath id="clip0_30_2">
<rect width="260" height="260" fill="white"/>
</clipPath>
</defs>
</svg>
