<svg width="90" height="90" viewBox="0 0 90 90" fill="none" xmlns="http://www.w3.org/2000/svg">
<path d="M50.815 37.7531H50.878V37.6541L50.815 37.7531ZM50.815 37.7531H50.878V37.6541L50.815 37.7531ZM50.815 37.7531H50.878V37.6541L50.815 37.7531ZM50.815 37.7531H50.878V37.6541L50.815 37.7531ZM50.815 37.7531H50.878V37.6541L50.815 37.7531ZM50.815 37.7531H50.878V37.6541L50.815 37.7531ZM50.815 37.7531H50.878V37.6541L50.815 37.7531ZM50.815 37.7531H50.878V37.6541L50.815 37.7531ZM50.815 37.7531H50.878V37.6541L50.815 37.7531ZM50.815 37.7531H50.878V37.6541L50.815 37.7531ZM50.815 37.7531H50.878V37.6541L50.815 37.7531ZM50.815 37.7531H50.878V37.6541L50.815 37.7531ZM50.815 37.7531H50.878V37.6541L50.815 37.7531ZM50.815 37.7531H50.878V37.6541L50.815 37.7531ZM50.815 37.7531H50.878V37.6541L50.815 37.7531ZM50.815 37.7531H50.878V37.6541L50.815 37.7531ZM46.72 1.39307C38.5906 1.39307 30.6437 3.80371 23.8844 8.32017C17.125 12.8366 11.8567 19.256 8.74574 26.7666C5.63475 34.2772 4.82078 42.5417 6.40674 50.5149C7.99271 58.4881 11.9074 65.8119 17.6558 71.5603C23.4041 77.3086 30.728 81.2233 38.7012 82.8093C46.6744 84.3952 54.9388 83.5813 62.4494 80.4703C69.96 77.3593 76.3794 72.091 80.8959 65.3317C85.4123 58.5723 87.823 50.6255 87.823 42.4961C87.8111 31.5985 83.4767 21.1507 75.771 13.445C68.0653 5.73928 57.6175 1.40498 46.72 1.39307ZM36.442 61.0001C36.4396 61.1823 36.3655 61.3563 36.2358 61.4843C36.1061 61.6123 35.9312 61.6841 35.749 61.6841H27.829C27.6476 61.6841 27.4736 61.612 27.3453 61.4837C27.217 61.3555 27.145 61.1815 27.145 61.0001V34.3871C27.1438 34.2965 27.1606 34.2066 27.1944 34.1225C27.2283 34.0385 27.2785 33.962 27.3421 33.8976C27.4057 33.8331 27.4815 33.7819 27.5651 33.747C27.6487 33.712 27.7384 33.6941 27.829 33.6941H35.749C35.84 33.6941 35.9301 33.712 36.0142 33.7468C36.0982 33.7816 36.1746 33.8327 36.239 33.897C36.3033 33.9614 36.3544 34.0378 36.3892 34.1219C36.424 34.2059 36.442 34.2961 36.442 34.3871V61.0001ZM31.51 30.1391C30.5256 30.1391 29.5634 29.8472 28.7449 29.3003C27.9264 28.7534 27.2885 27.9761 26.9118 27.0667C26.5351 26.1573 26.4366 25.1565 26.6286 24.1911C26.8206 23.2257 27.2946 22.3388 27.9907 21.6428C28.6867 20.9467 29.5736 20.4727 30.539 20.2807C31.5044 20.0887 32.5051 20.1872 33.4146 20.5639C34.324 20.9406 35.1013 21.5785 35.6482 22.397C36.1951 23.2155 36.487 24.1777 36.487 25.1621C36.4881 25.816 36.3602 26.4637 36.1105 27.0681C35.8608 27.6725 35.4943 28.2216 35.0319 28.684C34.5695 29.1464 34.0203 29.5129 33.416 29.7626C32.8116 30.0123 32.1639 30.1402 31.51 30.1391ZM69.958 61.0001C69.9556 61.1823 69.8815 61.3563 69.7518 61.4843C69.6221 61.6123 69.4472 61.6841 69.265 61.6841H61.345C61.2551 61.6841 61.1662 61.6664 61.0832 61.632C61.0002 61.5976 60.9248 61.5472 60.8613 61.4837C60.7978 61.4202 60.7474 61.3448 60.713 61.2618C60.6787 61.1788 60.661 61.0899 60.661 61.0001V46.6991C60.661 42.9371 59.32 40.3991 55.954 40.3991C54.9051 40.4049 53.8837 40.735 53.0298 41.344C52.1758 41.9531 51.5311 42.8113 51.184 43.8011C50.9467 44.5326 50.843 45.3008 50.878 46.0691V61.0001C50.878 61.1839 50.805 61.3601 50.675 61.4901C50.545 61.6201 50.3688 61.6931 50.185 61.6931H42.265C42.1744 61.6931 42.0847 61.6751 42.0011 61.6402C41.9175 61.6052 41.8417 61.554 41.7781 61.4896C41.7145 61.4251 41.6643 61.3486 41.6304 61.2646C41.5966 61.1806 41.5798 61.0906 41.581 61.0001C41.581 57.2021 41.68 38.7611 41.581 34.4231C41.5798 34.3325 41.5966 34.2426 41.6304 34.1585C41.6643 34.0745 41.7145 33.9981 41.7781 33.9336C41.8417 33.8691 41.9175 33.8179 42.0011 33.783C42.0847 33.748 42.1744 33.7301 42.265 33.7301H50.167C50.2583 33.7289 50.349 33.746 50.4336 33.7804C50.5182 33.8148 50.5951 33.8657 50.6597 33.9303C50.7243 33.9949 50.7753 34.0718 50.8097 34.1564C50.8441 34.2411 50.8612 34.3317 50.86 34.4231V37.6901C51.7018 36.2287 52.9278 35.0258 54.4049 34.2118C55.882 33.3979 57.5539 33.0041 59.239 33.0731C65.35 33.0731 69.94 37.0691 69.94 45.6731L69.958 61.0001ZM50.878 37.7801V37.6811L50.815 37.7801H50.878ZM50.815 37.7801H50.878V37.6811L50.815 37.7801ZM50.815 37.7801H50.878V37.6811L50.815 37.7801ZM50.815 37.7801H50.878V37.6811L50.815 37.7801ZM50.815 37.7801H50.878V37.6811L50.815 37.7801ZM50.815 37.7801H50.878V37.6811L50.815 37.7801ZM50.815 37.7801H50.878V37.6811L50.815 37.7801ZM50.815 37.7801H50.878V37.6811L50.815 37.7801ZM50.815 37.7801H50.878V37.6811L50.815 37.7801ZM50.815 37.7801H50.878V37.6811L50.815 37.7801ZM50.815 37.7801H50.878V37.6811L50.815 37.7801ZM50.815 37.7801H50.878V37.6811L50.815 37.7801ZM50.815 37.7801H50.878V37.6811L50.815 37.7801ZM50.815 37.7801H50.878V37.6811L50.815 37.7801ZM50.815 37.7801H50.878V37.6811L50.815 37.7801Z" fill="#2DAAE1"/>
</svg>
