<svg width="260" height="260" viewBox="0 0 260 260" fill="none" xmlns="http://www.w3.org/2000/svg">
<path d="M228.877 61.6159L139.212 9.60575C133.563 6.38825 126.163 6.38825 120.469 9.60575L30.1031 61.6159C24.2755 64.9695 20.3125 71.2725 20.3125 78.0142V181.896C20.3125 188.638 24.3588 194.943 30.1884 198.315L54.013 211.9C65.4428 217.531 68.6095 217.531 73.8095 217.531C90.738 217.531 99.5292 207.295 99.5292 189.442V86.8847C99.5312 85.4364 100.435 83.2812 99.0112 83.2812H87.5916C86.1453 83.2812 83.2812 85.4364 83.2812 86.8826V189.44C83.2812 197.354 75.9362 205.229 62.5584 198.54L37.9356 184.295C37.0784 183.828 36.5625 182.888 36.5625 181.896V78.0142C36.5625 77.0351 37.503 76.052 38.3723 75.5503L128.515 23.6295C129.358 23.1522 130.55 23.1522 131.389 23.6295L220.689 75.5381C221.544 76.052 221.408 77.0047 221.408 78.0142V181.896C221.408 182.888 221.595 183.852 220.752 184.33L131.107 236.281C130.339 236.742 129.34 236.742 128.497 236.281L105.509 222.572C104.817 222.17 103.982 222.026 103.315 222.397C96.9272 226.019 95.7409 226.501 89.7487 228.579C88.272 229.092 86.0945 229.984 90.5775 232.497L120.636 250.278C123.512 251.944 126.785 252.809 130.075 252.809C133.41 252.809 136.675 251.944 139.553 250.278L228.879 198.315C234.711 194.919 237.658 188.638 237.658 181.896V78.0142C237.656 71.2725 234.709 64.9858 228.877 61.6159ZM157.883 165.435C134.062 165.435 128.818 158.864 127.069 147.02C126.862 145.744 125.781 144.219 124.481 144.219H112.842C111.402 144.219 110.242 145.966 110.242 147.4C110.242 162.565 118.489 180.94 157.883 180.94C186.398 180.94 202.749 169.859 202.749 150.25C202.749 130.806 189.613 125.704 161.958 122.044C134.004 118.349 131.164 116.482 131.164 109.933C131.164 104.534 133.569 97.3334 154.267 97.3334C172.76 97.3334 179.577 101.302 182.382 113.768C182.624 114.94 183.694 115.781 184.903 115.781H196.59C197.31 115.781 197.994 115.491 198.498 114.977C198.987 114.424 199.243 113.732 199.18 112.988C197.366 91.52 183.107 81.5161 154.265 81.5161C128.607 81.5161 113.303 92.3507 113.303 110.512C113.303 130.211 128.531 135.655 153.16 138.09C182.624 140.979 184.915 145.285 184.915 151.08C184.915 161.147 176.835 165.435 157.883 165.435Z" fill="#83CD29"/>
</svg>
