<svg width="260" height="260" viewBox="0 0 260 260" fill="none" xmlns="http://www.w3.org/2000/svg">
<path d="M130 153.156C142.789 153.156 153.156 142.789 153.156 130C153.156 117.211 142.789 106.844 130 106.844C117.211 106.844 106.844 117.211 106.844 130C106.844 142.789 117.211 153.156 130 153.156Z" fill="#61DAFB"/>
<path d="M217.953 91.8125C213.484 90.1875 208.812 88.5625 203.938 87.1406C205.156 82.2656 206.172 77.3906 206.984 72.7187C211.25 45.9062 206.578 27.0156 193.578 19.7031C189.719 17.4687 185.453 16.4531 180.578 16.4531C166.359 16.4531 148.281 27.0156 130 44.6875C111.719 27.0156 93.6406 16.4531 79.4219 16.4531C74.5469 16.4531 70.2812 17.4687 66.4219 19.7031C53.4219 27.2187 48.75 46.1094 53.0156 72.7187C53.8281 77.3906 54.8438 82.2656 56.0625 87.1406C51.1875 88.5625 46.5156 89.9844 42.0469 91.8125C16.6563 101.562 2.84375 114.969 2.84375 130C2.84375 145.031 16.8594 158.438 42.0469 168.188C46.5156 169.813 51.1875 171.438 56.0625 172.859C54.8438 177.734 53.8281 182.609 53.0156 187.281C48.75 214.094 53.4219 232.984 66.4219 240.297C70.2812 242.531 74.5469 243.547 79.4219 243.547C93.8437 243.547 111.922 232.984 130 215.312C148.281 232.984 166.359 243.547 180.578 243.547C185.453 243.547 189.719 242.531 193.578 240.297C206.578 232.781 211.25 213.891 206.984 187.281C206.172 182.609 205.156 177.734 203.938 172.859C208.812 171.438 213.484 170.016 217.953 168.188C243.344 158.438 257.156 145.031 257.156 130C257.156 114.969 243.344 101.562 217.953 91.8125ZM187.891 29.8594C196.219 34.7344 199.062 49.7656 195.609 71.0938C195 75.3594 193.984 79.8281 192.766 84.5C182.203 82.0625 171.031 80.4375 159.25 79.4219C152.344 69.6719 145.234 60.9375 138.125 53.0156C153.156 38.1875 168.391 28.0312 180.781 28.0312C183.422 28.0312 185.859 28.6406 187.891 29.8594ZM165.141 150.312C161.484 156.812 157.219 163.312 152.75 169.812C145.234 170.422 137.719 170.625 130 170.625C122.078 170.625 114.562 170.422 107.25 169.812C102.781 163.312 98.7187 156.812 95.0625 150.312C91.2031 143.609 87.5469 136.703 84.2969 130C87.5469 123.297 91.2031 116.391 95.0625 109.688C98.7187 103.188 102.984 96.6875 107.453 90.1875C114.969 89.5781 122.484 89.375 130.203 89.375C138.125 89.375 145.641 89.5781 152.953 90.1875C157.422 96.6875 161.484 103.188 165.141 109.688C169 116.391 172.656 123.297 175.906 130C172.453 136.703 169 143.406 165.141 150.312ZM182 143.609C185.047 150.719 187.484 157.625 189.719 164.531C182.812 166.156 175.5 167.375 167.781 168.391C170.219 164.531 172.859 160.469 175.094 156.203C177.531 151.938 179.766 147.672 182 143.609ZM130 198.656C125.125 193.375 120.453 187.688 115.984 181.797C120.656 182 125.328 182.203 130 182.203C134.672 182.203 139.344 182 144.016 181.797C139.547 187.688 134.875 193.375 130 198.656ZM92.2188 168.188C84.5 167.172 77.1875 165.953 70.2812 164.328C72.5156 157.625 74.9531 150.516 78 143.406C80.2344 147.469 82.4687 151.734 84.9062 155.797C87.3437 160.266 89.7812 164.125 92.2188 168.188ZM78 116.391C74.9531 109.281 72.5156 102.375 70.2812 95.4688C77.1875 93.8438 84.5 92.625 92.2188 91.6094C89.7812 95.4688 87.1406 99.5312 84.9062 103.797C82.4687 108.062 80.2344 112.328 78 116.391ZM130 61.3438C134.875 66.625 139.547 72.3125 144.016 78.2031C139.344 78 134.672 77.7969 130 77.7969C125.328 77.7969 120.656 78 115.984 78.2031C120.453 72.3125 125.125 66.625 130 61.3438ZM175.094 104L167.781 91.8125C175.5 92.8281 182.812 94.0469 189.719 95.6719C187.484 102.375 185.047 109.484 182 116.594C179.766 112.328 177.531 108.062 175.094 104ZM64.3906 71.0938C60.9375 49.7656 63.7812 34.7344 72.1094 29.8594C74.1406 28.6406 76.5781 28.0312 79.2188 28.0312C91.4062 28.0312 106.641 37.9844 121.875 53.0156C114.766 60.7344 107.656 69.6719 100.75 79.4219C88.9687 80.4375 77.7969 82.2656 67.2344 84.5C66.0156 79.8281 65.2031 75.3594 64.3906 71.0938ZM14.2188 130C14.2188 120.453 25.7969 110.297 46.1094 102.781C50.1719 101.156 54.6406 99.7344 59.1094 98.5156C62.3594 108.672 66.4219 119.438 71.2969 130.203C66.4219 140.969 62.1562 151.531 59.1094 161.688C31.0781 153.562 14.2188 141.375 14.2188 130ZM72.1094 230.141C63.7812 225.266 60.9375 210.234 64.3906 188.906C65 184.641 66.0156 180.172 67.2344 175.5C77.7969 177.938 88.9687 179.562 100.75 180.578C107.656 190.328 114.766 199.062 121.875 206.984C106.844 221.812 91.6094 231.969 79.2188 231.969C76.5781 231.969 74.1406 231.359 72.1094 230.141ZM195.609 188.906C199.062 210.234 196.219 225.266 187.891 230.141C185.859 231.359 183.422 231.969 180.781 231.969C168.594 231.969 153.359 222.016 138.125 206.984C145.234 199.266 152.344 190.328 159.25 180.578C171.031 179.562 182.203 177.734 192.766 175.5C193.984 180.172 194.797 184.641 195.609 188.906ZM213.891 157.219C209.828 158.844 205.359 160.266 200.891 161.484C197.641 151.328 193.578 140.563 188.703 129.797C193.578 119.031 197.844 108.469 200.891 98.3125C228.922 106.438 245.781 118.625 245.781 130C245.781 139.547 234 149.703 213.891 157.219Z" fill="#61DAFB"/>
</svg>
