<svg width="90" height="90" viewBox="0 0 90 90" fill="none" xmlns="http://www.w3.org/2000/svg">
<g clip-path="url(#clip0_27_116)">
<path d="M45 90.0005C69.8528 90.0005 90 69.8533 90 45.0005C90 20.1477 69.8528 0.000488281 45 0.000488281C20.1472 0.000488281 0 20.1477 0 45.0005C0 69.8533 20.1472 90.0005 45 90.0005Z" fill="#2DAAE1"/>
<path d="M73.8534 27.0996C71.7308 28.0415 69.451 28.6782 67.054 28.9644C69.5004 27.4995 71.3745 25.1782 72.2594 22.4154C69.9355 23.7956 67.3923 24.7673 64.7402 25.2882C62.5818 22.9876 59.5041 21.5513 56.0991 21.5513C49.5633 21.5513 44.2628 26.8497 44.2628 33.3892C44.2628 34.3158 44.3671 35.2198 44.5678 36.0877C34.7291 35.5933 26.0064 30.8804 20.1678 23.7192C19.1484 25.4682 18.5648 27.5017 18.5648 29.6713C18.5648 33.7778 20.655 37.401 23.831 39.5235C21.9508 39.4652 20.112 38.9577 18.4681 38.0434V38.193C18.4681 43.9292 22.548 48.7122 27.9639 49.8C26.969 50.0726 25.9249 50.215 24.8448 50.215C24.0811 50.215 23.3402 50.1427 22.6163 50.0065C24.1228 54.7081 28.4948 58.1304 33.6735 58.2271C29.622 61.4031 24.5169 63.2963 18.9722 63.2963C18.0172 63.2963 17.0733 63.2393 16.1467 63.1276C21.3864 66.4874 27.6077 68.4488 34.2933 68.4488C56.0668 68.4488 67.975 50.4102 67.975 34.7671C67.975 34.2535 67.9636 33.7437 67.9389 33.2358C70.259 31.5577 72.2617 29.4799 73.8534 27.0996Z" fill="white"/>
</g>
<defs>
<clipPath id="clip0_27_116">
<rect width="90" height="90" fill="white"/>
</clipPath>
</defs>
</svg>
